<svg width="18" height="18" viewBox="0 0 18 18" fill="none" xmlns="http://www.w3.org/2000/svg">
<g id="vuesax/outline/message">
<g id="message">
<path id="Vector" d="M9 17.1075C8.4825 17.1075 7.995 16.845 7.65 16.3875L6.525 14.8875C6.5025 14.8575 6.4125 14.82 6.375 14.8125H6C2.8725 14.8125 0.9375 13.965 0.9375 9.75V6C0.9375 2.685 2.685 0.9375 6 0.9375H12C15.315 0.9375 17.0625 2.685 17.0625 6V9.75C17.0625 13.065 15.315 14.8125 12 14.8125H11.625C11.565 14.8125 11.5125 14.8425 11.475 14.8875L10.35 16.3875C10.005 16.845 9.5175 17.1075 9 17.1075ZM6 2.0625C3.315 2.0625 2.0625 3.315 2.0625 6V9.75C2.0625 13.14 3.225 13.6875 6 13.6875H6.375C6.7575 13.6875 7.1925 13.905 7.425 14.2125L8.55 15.7125C8.8125 16.0575 9.1875 16.0575 9.45 15.7125L10.575 14.2125C10.8225 13.8825 11.2125 13.6875 11.625 13.6875H12C14.685 13.6875 15.9375 12.435 15.9375 9.75V6C15.9375 3.315 14.685 2.0625 12 2.0625H6Z" fill="#141522"/>
<path id="Vector_2" d="M9 9C8.58 9 8.25 8.6625 8.25 8.25C8.25 7.8375 8.5875 7.5 9 7.5C9.4125 7.5 9.75 7.8375 9.75 8.25C9.75 8.6625 9.42 9 9 9Z" fill="#141522"/>
<path id="Vector_3" d="M12 9C11.58 9 11.25 8.6625 11.25 8.25C11.25 7.8375 11.5875 7.5 12 7.5C12.4125 7.5 12.75 7.8375 12.75 8.25C12.75 8.6625 12.42 9 12 9Z" fill="#141522"/>
<path id="Vector_4" d="M6 9C5.58 9 5.25 8.6625 5.25 8.25C5.25 7.8375 5.5875 7.5 6 7.5C6.4125 7.5 6.75 7.8375 6.75 8.25C6.75 8.6625 6.42 9 6 9Z" fill="#141522"/>
</g>
</g>
</svg>
