<svg width="405" height="49" viewBox="0 0 405 49" fill="none" xmlns="http://www.w3.org/2000/svg">
<g clip-path="url(#clip0_2143_16447)">
<path fill-rule="evenodd" clip-rule="evenodd" d="M170.638 40.8392H178.061V30.0107C178.061 25.5787 178.647 23.8578 180.404 23.8578C182.161 23.8578 182.747 25.5787 182.747 28.2897V40.8443H190.17V30.0159C190.17 25.5839 190.756 23.863 192.513 23.863C194.073 23.863 194.861 25.3403 194.861 27.8025V40.8495H202.279V25.8327C202.279 19.6798 200.133 16.4815 194.861 16.4815C192.321 16.4815 190.564 17.4664 189.195 19.4362L188.807 19.9286C187.438 17.7152 186.07 16.2379 183.141 16.2379C180.601 16.2379 178.844 17.2228 177.672 19.1926L176.501 16.9792H170.638V40.8547V40.8392Z" fill="white"/>
<path fill-rule="evenodd" clip-rule="evenodd" d="M158.814 7.41028H150.806L141.429 40.8806H149.629L150.806 36.205H159.4L160.572 40.8806H168.772L158.809 7.41028H158.814ZM152.537 29.0724L154.88 20.4573L157.42 29.0724H152.537Z" fill="white"/>
<path fill-rule="evenodd" clip-rule="evenodd" d="M21.092 23.8992L20.3092 23.1579C21.8695 21.437 22.8492 20.2033 22.8492 16.5126C22.8492 10.8521 20.1175 7.65387 14.6488 7.65387H0V40.8806H12.8916C20.1175 40.8806 24.2177 38.9108 24.2177 31.5294C24.2177 28.5748 23.2432 26.1126 21.092 23.8992ZM8.77579 15.8543H13.073C14.8302 15.8543 15.2242 16.5904 15.2242 18.5601C15.2242 20.5299 14.6384 20.5299 12.8812 20.5299H8.78098V15.8543H8.77579ZM13.8609 32.9186H8.78098V27.7506H14.0579C15.6181 27.7506 16.4008 28.4918 16.4008 30.4564C16.4008 32.675 15.8151 32.9186 13.8609 32.9186Z" fill="white"/>
<path fill-rule="evenodd" clip-rule="evenodd" d="M70.9995 40.8806H78.4224V30.7882L83.6941 40.8806H92.0967L84.6738 26.605L91.5109 17.005H82.9166L78.4224 23.4067V8.14111H70.9995V40.8806Z" fill="white"/>
<path fill-rule="evenodd" clip-rule="evenodd" d="M47.9121 40.8392H55.335V30.0107C55.335 25.5787 56.5065 23.609 58.4607 23.609C60.6119 23.609 61.3894 25.5787 61.3894 28.5282V40.8392H68.8123V27.2997C68.8123 20.1619 66.4693 15.9736 61.3894 15.9736C59.2434 15.9736 57.678 16.7096 56.1177 18.6794L55.7289 19.1667L54.9462 16.9533H47.9121V40.8288V40.8392Z" fill="white"/>
<path fill-rule="evenodd" clip-rule="evenodd" d="M108.591 15.958C102.536 15.958 98.436 21.6185 98.436 29.2487C98.436 36.8789 102.536 41.8033 109.176 41.8033C115.817 41.8033 119.139 36.8841 119.139 29.7411C119.139 20.8824 115.428 15.958 108.591 15.958ZM108.979 35.3809C105.885 35.3809 105.854 31.1044 105.854 28.9169C105.854 25.615 106.569 22.8262 108.979 22.8262C111.115 22.8262 111.877 24.7182 111.908 28.6578C111.95 33.6651 110.856 35.3809 108.979 35.3809Z" fill="white"/>
<path fill-rule="evenodd" clip-rule="evenodd" d="M215.072 35.6452C213.314 35.6452 212.335 34.4167 211.946 31.7057H224.837C224.837 22.3494 221.712 15.9528 214.875 15.9528C208.623 15.9528 204.523 21.1208 204.523 29.2435C204.523 37.3662 208.623 42.1662 215.263 42.1662C220.732 42.1662 223.075 38.8435 224.832 33.4267H218.384C218.192 34.6603 217.015 35.64 215.066 35.64L215.072 35.6452ZM214.864 22.6604C216.621 22.6604 217.601 24.1377 217.798 26.1074H211.744C212.132 23.8941 213.112 22.6604 214.869 22.6604H214.864Z" fill="white"/>
<path fill-rule="evenodd" clip-rule="evenodd" d="M35.7878 16.4244C29.3447 16.4244 26.4107 19.8715 26.4107 25.532H32.6621C32.6621 24.0547 33.6418 22.3285 35.7878 22.3285C36.7675 22.3285 37.5451 23.3134 37.5451 24.5471C37.5451 28.7302 25.2393 24.5471 25.2393 34.8831C25.2393 39.3151 27.5822 42.0209 31.4907 42.0209C34.4194 42.0209 36.5706 40.7924 37.742 39.3151L38.9135 40.7924H45.3619V28.2378C45.3619 20.364 43.4077 16.4244 35.793 16.4244H35.7878ZM37.5399 33.3799C37.5399 34.8572 35.9744 36.3346 34.8081 36.3346C33.6418 36.3346 33.0509 35.3497 33.0509 34.3648C33.0509 32.8875 34.2224 31.1665 37.5451 30.6741V33.3799H37.5399Z" fill="white"/>
<path fill-rule="evenodd" clip-rule="evenodd" d="M284.703 16.4452C278.451 16.4452 275.134 19.6435 275.134 25.5527H281.385C281.385 24.0754 282.168 22.3545 284.511 22.3545C285.486 22.3545 286.268 23.3393 286.268 24.5679C286.268 28.751 274.356 24.5679 274.356 34.9039C274.356 39.3307 276.699 41.7981 280.608 41.7981C283.34 41.7981 285.491 40.8132 286.465 39.3359L287.637 40.8132H294.08V28.2586C294.08 20.6283 292.323 16.4452 284.708 16.4452H284.703ZM286.263 33.3799C286.263 34.8573 284.703 36.3346 283.531 36.3346C282.36 36.3346 281.774 35.3497 281.774 34.3648C281.774 32.8875 282.946 31.1665 286.268 30.6741V33.3799H286.263Z" fill="white"/>
<path fill-rule="evenodd" clip-rule="evenodd" d="M265.938 31.1924C265.741 34.3907 265.156 35.132 263.207 35.132C260.47 35.132 259.495 32.6698 259.495 29.4663C259.495 25.532 260.086 23.0698 262.818 23.0698C264.575 23.0698 264.772 23.3134 265.943 26.0244H271.806C271.417 19.8715 269.266 16.4244 262.823 16.4244C256.769 16.4244 253.057 20.8564 253.057 28.4814C253.057 36.8529 256.38 42.0209 263.02 42.0209C268.1 42.0209 272.003 38.8227 272.392 32.9134L272.589 31.1873H265.949L265.938 31.1924Z" fill="white"/>
<path fill-rule="evenodd" clip-rule="evenodd" d="M227.373 40.834H234.795V32.4677C234.795 26.3148 236.164 24.5938 240.461 24.1014H241.244V16.7148C238.704 16.7148 236.75 16.7148 234.604 19.6694L233.432 16.9584H227.378V40.834H227.373Z" fill="white"/>
<path fill-rule="evenodd" clip-rule="evenodd" d="M121.508 22.9143H124.048V40.8806H131.471V22.9143H134.597V17.0051H131.471C131.471 14.5429 131.86 14.2941 132.643 14.2941H134.986V7.89752H129.906C126.583 7.89752 124.437 8.63877 124.437 13.8068V17.0102H121.508V22.9195V22.9143Z" fill="white"/>
<path fill-rule="evenodd" clip-rule="evenodd" d="M243.317 40.8339H250.74V16.9584H243.317V40.8339Z" fill="white"/>
<path fill-rule="evenodd" clip-rule="evenodd" d="M243.317 14.4392H250.74V7.54504H243.317V14.4392Z" fill="white"/>
<path fill-rule="evenodd" clip-rule="evenodd" d="M341.727 10.7122C338.036 12.2724 321.936 19.4517 315.923 22.961C313.326 21.9553 311.118 21.2193 308.101 20.0944C320.604 12.8063 334.19 8.66984 334.428 8.36401C336.974 9.03269 339.14 10.0798 341.727 10.7122Z" fill="white"/>
<path fill-rule="evenodd" clip-rule="evenodd" d="M353.8 15.7455C350.109 17.3057 333.9 25.1225 327.882 28.637C325.078 27.2323 322.335 25.8327 319.542 24.7027C332.044 17.4146 345.014 12.5731 345.247 12.2725C347.652 13.2055 351.26 14.8124 353.795 15.7455H353.8Z" fill="white"/>
<path fill-rule="evenodd" clip-rule="evenodd" d="M392.806 13.0085C389.116 14.5687 363.706 22.7899 339.638 38.7916C336.59 36.9255 331.676 34.0849 328.67 33.1052C341.173 25.8171 357.734 14.8279 382.983 8.34845C386.788 10.0176 389.401 11.469 392.806 13.0085Z" fill="white"/>
<path fill-rule="evenodd" clip-rule="evenodd" d="M404.697 19.6849C401.006 21.2452 370.164 35.9821 355.204 49.0084C352.467 47.4067 346.522 42.9281 343.749 41.4508C355.738 33.7169 370.967 22.4944 395.952 14.9471C399.757 16.6163 401.628 17.8862 404.702 19.6901L404.697 19.6849Z" fill="white"/>
<path fill-rule="evenodd" clip-rule="evenodd" d="M341.94 2.97821C348.523 5.12421 358.138 8.46762 364.421 11.6711C362.43 12.7596 359.735 13.4957 357.33 14.4961C341.349 7.79894 334.864 5.82918 334.563 5.59592C335.994 4.97907 340.706 3.3929 341.94 2.97821Z" fill="white"/>
<path fill-rule="evenodd" clip-rule="evenodd" d="M353.598 0.0495605C360.181 2.19556 370.232 5.05689 376.509 8.26553C374.373 8.79944 371.284 9.43183 368.832 10.453C352.851 3.75582 346.963 2.01932 346.662 1.78087C348.093 1.16403 352.364 0.459063 353.598 0.0495605Z" fill="white"/>
</g>
<defs>
<clipPath id="clip0_2143_16447">
<rect width="404.697" height="48.9589" fill="white" transform="translate(0 0.0495605)"/>
</clipPath>
</defs>
</svg>
