<svg width="25" height="24" viewBox="0 0 25 24" fill="none" xmlns="http://www.w3.org/2000/svg">
<path d="M12.334 8.25C12.334 7.45435 12.6501 6.69129 13.2127 6.12868C13.7753 5.56607 14.5383 5.25 15.334 5.25H21.334C21.5329 5.25 21.7237 5.32902 21.8643 5.46967C22.005 5.61032 22.084 5.80109 22.084 6V18C22.084 18.1989 22.005 18.3897 21.8643 18.5303C21.7237 18.671 21.5329 18.75 21.334 18.75H15.334C14.5383 18.75 13.7753 19.0661 13.2127 19.6287C12.6501 20.1913 12.334 20.9544 12.334 21.75" stroke="white" stroke-width="1.5" stroke-linecap="round" stroke-linejoin="round"/>
<path d="M2.58398 18C2.58398 18.1989 2.663 18.3897 2.80365 18.5303C2.94431 18.671 3.13507 18.75 3.33398 18.75H9.33398C10.1296 18.75 10.8927 19.0661 11.4553 19.6287C12.0179 20.1913 12.334 20.9544 12.334 21.75V8.25C12.334 7.45435 12.0179 6.69129 11.4553 6.12868C10.8927 5.56607 10.1296 5.25 9.33398 5.25H3.33398C3.13507 5.25 2.94431 5.32902 2.80365 5.46967C2.663 5.61032 2.58398 5.80109 2.58398 6V18Z" stroke="white" stroke-width="1.5" stroke-linecap="round" stroke-linejoin="round"/>
</svg>
