<svg width="121" height="80" viewBox="0 0 121 80" fill="none" xmlns="http://www.w3.org/2000/svg">
<g id="Chart">
<rect id="Rectangle 17917" x="0.0332336" y="23.2221" width="5.33677" height="26.8889" rx="2.66838" fill="#1152A2"/>
<rect id="Rectangle 17918" x="8.92776" y="9.77753" width="5.33677" height="28.1111" rx="2.66838" fill="#1152A2"/>
<rect id="Rectangle 17919" x="17.8227" y="-6.10352e-05" width="5.33677" height="26.8889" rx="2.66838" fill="#1152A2"/>
<rect id="Rectangle 17920" x="26.7173" y="4.88892" width="5.33677" height="26.8889" rx="2.66838" fill="#1152A2"/>
<rect id="Rectangle 17921" x="35.6114" y="23.2221" width="5.33677" height="26.8889" rx="2.66838" fill="#1152A2"/>
<rect id="Rectangle 17922" x="44.5063" y="17.1111" width="5.33677" height="26.8889" rx="2.66838" fill="#1152A2"/>
<rect id="Rectangle 17923" x="53.4008" y="31.7777" width="5.33677" height="29.3333" rx="2.66838" fill="#1152A2"/>
<rect id="Rectangle 17924" x="62.2954" y="48.8889" width="5.33677" height="26.8889" rx="2.66838" fill="#1152A2"/>
<rect id="Rectangle 17925" x="71.1902" y="53.1111" width="5.33677" height="26.8889" rx="2.66838" fill="#1152A2"/>
<rect id="Rectangle 17926" x="80.0848" y="15.2222" width="5.33677" height="46.4444" rx="2.66838" fill="#1152A2"/>
<rect id="Rectangle 17927" x="88.9794" y="1.22211" width="5.33677" height="25.6667" rx="2.66838" fill="#1152A2"/>
<rect id="Rectangle 17928" x="97.8739" y="13.4443" width="5.33677" height="25.6667" rx="2.66838" fill="#1152A2"/>
<rect id="Rectangle 17929" x="106.768" y="24.4443" width="5.33677" height="25.6667" rx="2.66838" fill="#1152A2"/>
<rect id="Rectangle 17930" x="115.663" y="26.8887" width="5.33677" height="26.8889" rx="2.66838" fill="#1152A2"/>
</g>
</svg>
