<svg width="24" height="25" viewBox="0 0 24 25" fill="none" xmlns="http://www.w3.org/2000/svg">
<path d="M0 12.1362C0 5.51943 5.3832 0.13623 12 0.13623C14.1112 0.13623 16.0929 0.690354 17.8173 1.65421C18.4724 2.02039 18.5412 2.90438 18.0105 3.43506C17.5996 3.84601 16.9594 3.90223 16.4449 3.63188C15.1149 2.93294 13.6032 2.53623 12 2.53623C6.7068 2.53623 2.4 6.84303 2.4 12.1362C2.4 17.4294 6.7068 21.7362 12 21.7362C17.2932 21.7362 21.6 17.4294 21.6 12.1362C21.6 11.717 21.573 11.3038 21.5207 10.8987C21.4655 10.4719 21.5908 10.036 21.8951 9.73177C22.5664 9.06046 23.6988 9.33351 23.85 10.2708C23.948 10.8785 24 11.5012 24 12.1362C24 18.753 18.6168 24.1362 12 24.1362C5.3832 24.1362 0 18.753 0 12.1362Z" fill="url(#paint0_linear_1266_7251)"/>
<path d="M23.6459 2.53668C23.1772 2.06822 22.4176 2.06822 21.949 2.53669L11.1004 13.3815C10.7365 13.7453 10.1466 13.7453 9.78271 13.3815L7.33702 10.9367C6.8684 10.4682 6.10878 10.4682 5.64015 10.9367C5.17129 11.4054 5.17129 12.1655 5.64015 12.6342L9.50035 16.493C10.0202 17.0127 10.8629 17.0127 11.3827 16.493L23.6459 4.23416C24.1147 3.76546 24.1147 3.00538 23.6459 2.53668Z" fill="url(#paint1_linear_1266_7251)"/>
<defs>
<linearGradient id="paint0_linear_1266_7251" x1="-3.34402" y1="20.4769" x2="26.3709" y2="12.1362" gradientUnits="userSpaceOnUse">
<stop stop-color="#00AABB"/>
<stop offset="1" stop-color="#08808C"/>
</linearGradient>
<linearGradient id="paint1_linear_1266_7251" x1="-3.34402" y1="20.4769" x2="26.3709" y2="12.1362" gradientUnits="userSpaceOnUse">
<stop stop-color="#00AABB"/>
<stop offset="1" stop-color="#08808C"/>
</linearGradient>
</defs>
</svg>
