<svg width="29" height="29" viewBox="0 0 29 29" fill="none" xmlns="http://www.w3.org/2000/svg">
<path d="M0.5 14.1362C0.5 6.41663 6.7804 0.13623 14.5 0.13623C16.9631 0.13623 19.2751 0.782708 21.2868 1.90721C22.0511 2.33441 22.1314 3.36574 21.5123 3.98487C21.0329 4.46431 20.2859 4.5299 19.6857 4.21449C18.134 3.39906 16.3705 2.93623 14.5 2.93623C8.3246 2.93623 3.3 7.96083 3.3 14.1362C3.3 20.3116 8.3246 25.3362 14.5 25.3362C20.6754 25.3362 25.7 20.3116 25.7 14.1362C25.7 13.6472 25.6685 13.1651 25.6074 12.6924C25.5431 12.1945 25.6893 11.686 26.0443 11.331C26.8275 10.5478 28.1486 10.8664 28.325 11.9599C28.4394 12.6688 28.5 13.3954 28.5 14.1362C28.5 21.8558 22.2196 28.1362 14.5 28.1362C6.7804 28.1362 0.5 21.8558 0.5 14.1362Z" fill="url(#paint0_linear_799_12798)"/>
<path d="M28.0868 2.93676C27.5401 2.39022 26.6539 2.39022 26.1071 2.93676L13.4504 15.5891C13.0259 16.0135 12.3377 16.0135 11.9132 15.5891L9.05986 12.7368C8.51313 12.1902 7.62691 12.1902 7.08017 12.7368C6.53317 13.2836 6.53317 14.1703 7.08017 14.7171L11.5837 19.2191C12.1902 19.8254 13.1733 19.8254 13.7798 19.2191L28.0868 4.91714C28.6338 4.37033 28.6338 3.48357 28.0868 2.93676Z" fill="url(#paint1_linear_799_12798)"/>
<defs>
<linearGradient id="paint0_linear_799_12798" x1="-3.40136" y1="23.8671" x2="31.2661" y2="14.1362" gradientUnits="userSpaceOnUse">
<stop stop-color="#00AABB"/>
<stop offset="1" stop-color="#08808C"/>
</linearGradient>
<linearGradient id="paint1_linear_799_12798" x1="-3.40136" y1="23.8671" x2="31.2661" y2="14.1362" gradientUnits="userSpaceOnUse">
<stop stop-color="#00AABB"/>
<stop offset="1" stop-color="#08808C"/>
</linearGradient>
</defs>
</svg>
