<svg width="43" height="43" viewBox="0 0 43 43" fill="none" xmlns="http://www.w3.org/2000/svg">
<rect x="0.5" y="0.0214844" width="41.9919" height="41.9919" rx="20.996" fill="#C6FAFF"/>
<path fill-rule="evenodd" clip-rule="evenodd" d="M21.4961 31.0176C27.0189 31.0176 31.4961 26.5404 31.4961 21.0176C31.4961 15.4947 27.0189 11.0176 21.4961 11.0176C15.9732 11.0176 11.4961 15.4947 11.4961 21.0176C11.4961 26.5404 15.9732 31.0176 21.4961 31.0176ZM26.0881 18.4781C26.3424 18.1511 26.2835 17.6799 25.9566 17.4256C25.6296 17.1713 25.1584 17.2302 24.9041 17.5572L20.8971 22.709C20.808 22.8236 20.6404 22.8384 20.5325 22.7414L17.9978 20.4601C17.6899 20.183 17.2157 20.208 16.9386 20.5159C16.6615 20.8238 16.6865 21.298 16.9944 21.5751L19.5291 23.8563C20.2842 24.5359 21.4574 24.4318 22.0811 23.6299L26.0881 18.4781Z" fill="#00828F"/>
</svg>
