<svg width="25" height="25" viewBox="0 0 25 25" fill="none" xmlns="http://www.w3.org/2000/svg">
<path d="M6.80672 5.79289C6.41619 5.40237 5.78303 5.40237 5.3925 5.79289C5.00198 6.18342 5.00198 6.81658 5.3925 7.20711L10.6854 12.5L5.39253 17.7929C5.00201 18.1834 5.00201 18.8166 5.39253 19.2071C5.78306 19.5976 6.41622 19.5976 6.80675 19.2071L12.0996 13.9142L17.3925 19.2071C17.783 19.5976 18.4162 19.5976 18.8067 19.2071C19.1972 18.8166 19.1972 18.1834 18.8067 17.7929L13.5138 12.5L18.8067 7.20711C19.1973 6.81658 19.1973 6.18342 18.8067 5.79289C18.4162 5.40237 17.7831 5.40237 17.3925 5.79289L12.0996 11.0858L6.80672 5.79289Z" fill="#6F767E"/>
</svg>
