<svg width="241" height="53" viewBox="0 0 241 53" fill="none" xmlns="http://www.w3.org/2000/svg">
<g clip-path="url(#clip0_2143_16434)">
<path d="M138.965 32.1742L153.353 18.1059H139.165V11.5114H163.384V18.2258L148.996 32.2541H163.664V38.8886H138.925V32.1742H138.965Z" fill="white"/>
<path d="M136.207 2.47888H128.733V9.27323H136.207V2.47888Z" fill="white"/>
<path d="M136.087 11.5514H128.613V38.9286H136.087V11.5514Z" fill="white"/>
<path d="M37.9682 25.1401C38.0082 17.3066 44.3629 10.9918 52.1964 11.0318C60.0298 11.0718 66.3446 17.4265 66.3046 25.26C66.2646 33.0535 59.9499 39.3682 52.1164 39.3682C44.3229 39.3682 37.9682 33.0535 37.9282 25.26C37.9682 25.22 37.9682 25.18 37.9682 25.1401ZM59.0706 25.1401C59.0706 21.2633 55.9932 18.026 52.1964 18.026C48.3196 18.026 45.362 21.2633 45.362 25.1401C45.362 29.0168 48.3196 32.2541 52.1964 32.2541C55.9932 32.2541 59.0706 29.0168 59.0706 25.1401Z" fill="white"/>
<path d="M100.157 11.4713H107.591V14.5488C109.349 12.3107 112.027 10.9518 115.144 10.9518C121.619 10.9518 125.496 15.1083 125.496 22.1824V38.8885H117.902V23.1816C117.902 19.5047 116.183 17.3864 112.866 17.3864C110.029 17.3864 107.67 19.3448 107.67 23.941V38.8885H100.197V11.4713H100.157Z" fill="white"/>
<path d="M164.104 25.14C164.104 15.4681 171.218 10.9119 177.412 10.9119C180.969 10.9119 183.767 12.2308 185.566 14.1492V11.4714H193.039V38.8486H185.566V35.7712C183.767 37.8894 180.85 39.3682 177.293 39.3682C171.497 39.3682 164.104 34.772 164.104 25.14ZM185.765 25.1001C185.765 21.0634 182.808 17.7862 178.771 17.7862C174.615 17.7862 171.457 20.9036 171.457 25.1001C171.457 29.2966 174.615 32.4939 178.771 32.4939C182.848 32.4939 185.805 29.1367 185.765 25.1001Z" fill="white"/>
<path d="M196.077 11.4713H203.511V14.5488C205.27 12.3107 207.947 10.9518 211.065 10.9518C217.539 10.9518 221.416 15.1083 221.416 22.1824V38.8885H213.822V23.1816C213.822 19.5047 212.144 17.3864 208.787 17.3864C205.949 17.3864 203.591 19.3448 203.591 23.941V38.8885H196.117L196.077 11.4713Z" fill="white"/>
<path d="M138.964 38.8086V32.1341L153.352 18.0658H139.164V11.4713H163.384V18.1857L148.996 32.2141" fill="white"/>
<path d="M29.9752 24.9001L29.8953 25.1399C27.817 29.4963 24.0202 32.0142 19.464 32.0142C12.8295 32.0142 7.67376 26.7786 7.67376 20.1041C7.67376 13.2298 12.8295 8.11409 19.6238 8.11409C24.0601 8.11409 27.3774 10.1924 29.6155 14.269L29.7354 14.5088L36.4099 10.2323L36.29 10.0325C32.8129 4.11742 26.618 0.600342 19.6238 0.600342C8.51306 0.600342 0.0800781 8.99336 0.0800781 20.1441C0.0800781 31.4547 8.27326 39.6479 19.5839 39.6479C26.8578 39.6479 33.2925 35.6112 36.8095 28.8169L36.9294 28.617L29.9752 24.9001Z" fill="white"/>
<path d="M68.2231 25.14C68.2231 15.4681 75.3372 10.9119 81.5321 10.9119C85.0891 10.9119 87.8868 12.3906 89.6853 14.4289V11.4714H97.1591V38.0493C97.1591 45.7629 92.2831 51.9977 83.0508 51.9977C76.0966 51.9977 71.0208 48.4007 68.8226 44.1242L75.4172 40.4073C76.856 43.245 79.3339 45.0435 83.0108 45.0435C87.0475 45.0435 89.6054 41.8861 89.6054 38.3291V35.7712C87.8069 37.8894 84.8893 39.3682 81.3322 39.3682C75.577 39.3682 68.2231 34.772 68.2231 25.14ZM89.8851 25.1001C89.8851 21.0634 86.9276 17.7862 82.8909 17.7862C78.7344 17.7862 75.577 20.9036 75.577 25.1001C75.577 29.2966 78.7344 32.4939 82.8909 32.4939C86.9276 32.4939 89.8851 29.1367 89.8851 25.1001Z" fill="white"/>
<path d="M239.881 18.2258V11.5114H234.725V2.47888H227.251V11.5114H222.575V18.2258H227.211V26.9385C227.211 35.8511 230.049 38.8087 238.762 38.8087H239.841V31.8145C235.245 31.8145 234.685 31.175 234.685 26.8986V18.2258H239.881Z" fill="white"/>
</g>
<defs>
<clipPath id="clip0_2143_16434">
<rect width="240.2" height="51.5571" fill="white" transform="translate(0 0.560425)"/>
</clipPath>
</defs>
</svg>
