<svg width="275" height="63" viewBox="0 0 275 63" fill="none" xmlns="http://www.w3.org/2000/svg">
<g clip-path="url(#clip0_2143_16392)">
<path fill-rule="evenodd" clip-rule="evenodd" d="M14.8898 61.9527C8.27313 61.9246 -0.916717 55.308 0.073824 48.7757C2.0799 35.6284 6.43579 22.1967 9.03713 10.0946C10.3089 4.21386 17.8583 0.367307 23.4297 0.339184C99.3498 -0.0560952 175.242 -0.0560952 251.162 0.339184C256.732 0.367307 264.281 4.21386 265.555 10.0946C268.156 22.1967 272.51 35.6284 274.518 48.7757C275.507 55.308 266.317 61.9246 259.702 61.9527C178.098 62.009 96.4938 62.009 14.8898 61.9527Z" fill="white"/>
<path d="M13.7831 13.6027L13.7848 13.5955L13.7864 13.5884L14.2889 11.3562C14.67 9.89826 15.8461 8.56139 17.6049 7.51026C19.3386 6.47419 21.408 5.86264 23.1365 5.73244L30.5615 5.70456L30.5639 5.70455C104.094 5.33747 177.567 5.36555 251.07 5.73255C252.639 5.78243 254.072 6.15232 255.601 6.80083C258.017 7.94946 259.791 9.39998 260.301 11.3554C260.425 11.9084 260.55 12.4686 260.675 13.0317C260.802 13.6039 260.93 14.1791 261.058 14.7477L261.061 14.7595L261.064 14.7713C261.948 18.4875 262.895 22.1421 263.836 25.7717C265.882 33.6674 267.898 41.4446 269.167 49.4798C269.22 50.1038 269.026 50.7516 268.552 51.479C268.062 52.2302 267.345 52.9515 266.544 53.6506C264.403 55.3181 262.03 56.4593 259.604 56.5593C178.061 56.6156 96.548 56.6156 15.0051 56.5594L14.6142 56.5364C12.2687 56.3223 10.0775 55.2351 8.0485 53.6512C7.24662 52.9517 6.52918 52.2301 6.03857 51.4785C5.56362 50.7509 5.36996 50.1031 5.42266 49.4795C6.69209 41.4227 8.70841 33.6285 10.7514 25.7312C11.7863 21.7307 12.8281 17.7037 13.7831 13.6027Z" stroke="#1152A2" stroke-width="4"/>
<path fill-rule="evenodd" clip-rule="evenodd" d="M13.024 54.827C10.7617 54.0348 8.47129 52.6209 7.14172 50.6132C7.0011 50.3305 6.77456 49.9914 6.80268 49.6524C8.83845 36.7863 12.8537 24.3748 15.6535 11.6509C15.8222 10.9713 16.1613 10.5198 16.6425 10.0104C18.4236 8.28557 21.0812 7.18254 23.5419 7.12629C99.3777 6.73101 175.213 6.73101 251.049 7.12629C253.085 7.18254 255.007 7.88873 256.675 8.99176C257.636 9.67139 258.627 10.4619 258.938 11.6509C261.737 24.3748 265.753 36.7863 267.788 49.6524C267.845 50.0492 267.478 50.5289 267.279 50.8398C265.639 53.074 262.415 55.0816 259.588 55.166C178.068 55.2238 96.5217 55.2238 15.002 55.166C14.2958 55.1379 13.7021 54.9972 13.024 54.827Z" fill="white"/>
<path fill-rule="evenodd" clip-rule="evenodd" d="M82.3565 24.9966C83.9969 21.9703 86.9654 19.9065 90.9245 19.9065C96.9755 19.9065 101.33 24.0077 101.33 30.8212C101.33 35.4864 98.1067 42.0468 91.0651 42.0468C85.0984 42.0468 80.9144 37.1831 80.9144 30.8212C80.9144 29.5478 81.1112 28.2761 81.48 27.0887C80.2066 22.0266 76.2773 16.2021 71.1027 16.2021C68.9248 16.2021 66.3812 17.1926 64.5705 19.2284C62.8456 21.122 60.9223 24.2889 60.9223 31.4149C60.9223 41.9046 66.1266 46.2027 71.6402 46.2027C77.0116 46.2027 80.1504 42.6967 81.5081 41.2265L82.3002 42.103C82.2424 42.2155 78.5115 48.4087 70.4528 48.4087C63.4112 48.4087 55.8618 43.6294 55.8618 31.3008C55.8618 20.2174 63.2128 14.2241 70.7059 14.2241C74.6087 14.2241 77.4366 15.8631 78.3974 15.8631C78.624 15.8631 80.066 15.863 80.4051 14.2241H81.3378L82.3565 24.9966Z" fill="#1152A2"/>
<path fill-rule="evenodd" clip-rule="evenodd" d="M104.721 37.5784C104.721 40.7172 103.393 40.8297 101.64 40.8594V41.5656H111.366V40.8594C109.811 40.8297 108.369 40.7172 108.369 38.4268V25.1373C108.369 24.8826 110.405 22.3391 113.402 22.3391C115.692 22.3391 116.428 24.1764 116.428 27.2871V37.5222C116.428 40.5766 115.409 40.7172 113.459 40.8594V41.5656H123.243V40.8594C121.462 40.8297 120.104 40.6891 120.104 37.0988V25.2232C121.065 23.6109 122.535 22.3391 124.938 22.3391C128.105 22.3391 128.135 25.1373 128.135 27.5418V37.4659C128.135 40.4907 127.427 40.5766 125.251 40.8594V41.5656H134.808V40.8594L133.676 40.7735C131.753 40.4345 131.809 39.0205 131.809 38.0034V28.2761C131.809 24.7983 131.188 19.9065 126.663 19.9065C123.185 19.9065 120.528 22.7344 119.623 23.8655C119.142 21.886 117.786 19.9065 114.93 19.9065C112.583 19.9065 110.8 21.4048 108.201 23.5265V19.9909L107.918 19.9065C105.88 20.6986 103.845 21.4048 101.781 22.0266V22.8187C102.149 22.7344 102.573 22.6219 103.195 22.6219C103.873 22.6219 104.721 22.6781 104.721 25.6466V37.5784Z" fill="#1152A2"/>
<path fill-rule="evenodd" clip-rule="evenodd" d="M153.186 33.8459C152.113 35.5989 150.133 38.794 145.976 38.794C142.895 38.794 139.106 36.8722 138.568 28.5308H153.073C152.536 22.3391 149.227 19.9065 144.844 19.9065C141.113 19.9065 135.345 22.7625 135.345 31.4993C135.345 38.1721 138.879 42.0468 144.054 42.0468C150.783 42.0468 153.497 35.6286 153.95 34.185L153.186 33.8459Z" fill="#1152A2"/>
<path fill-rule="evenodd" clip-rule="evenodd" d="M157.711 37.6066C157.711 40.2657 156.891 40.4063 154.121 40.8594V41.5656H166.251V40.8594C163.649 40.7735 161.953 40.5766 161.953 37.3238V26.7215C161.953 25.2232 164.157 22.8766 165.373 22.8766C166.59 22.8766 167.098 24.5155 168.851 24.5155C169.869 24.5155 170.519 23.9218 170.718 23.0453C171.029 23.0172 171.311 23.0172 171.566 23.0172C172.244 23.0172 173.064 23.0453 173.064 25.8451V36.7582C173.064 40.4344 172.328 40.7172 169.729 40.8594V41.5656H179.737V40.8594C176.825 40.6891 176.598 39.8689 176.598 36.7582V20.0487L176.43 19.9065C174.62 20.6424 172.641 21.3767 170.774 22.0563C170.605 20.7267 169.643 19.9065 168.06 19.9065C166.137 19.9065 164.412 20.8392 162.037 24.1764H161.953V19.9909L161.698 19.9065C159.209 20.8392 156.692 21.6876 154.205 22.4516V23.1875C154.656 23.1015 155.222 23.0172 155.93 23.0172C156.75 23.0172 157.711 23.0453 157.711 25.8451V37.6066Z" fill="#1152A2"/>
<path fill-rule="evenodd" clip-rule="evenodd" d="M195.402 35.7411C194.101 37.4378 192.518 38.6534 189.945 38.6534C186.127 38.6534 182.988 35.063 182.988 29.6619C182.988 22.7344 187.173 21.2642 188.87 21.2642C191.273 21.2642 191.5 22.1126 191.867 23.5265L192.15 24.5717C192.404 25.5904 193.196 26.8341 194.356 26.7216C195.741 26.6356 196.448 25.731 196.448 24.6577C196.448 23.8093 195.882 22.3391 194.498 21.3486C193.367 20.6143 191.331 19.9065 189.69 19.9065C184.771 19.9065 179.482 23.8093 179.482 31.5274C179.482 38.9924 184.346 42.0468 187.994 42.0468C190.256 42.0468 192.236 41.2828 193.989 39.4736C193.14 41.65 191.981 44.5919 191.104 45.6653C190.312 46.6277 189.576 46.7121 188.842 46.7683V47.701H197.551V46.7683C196.646 46.7683 194.582 46.7683 194.582 44.6763C194.582 44.1388 194.695 43.4326 194.921 42.8093L196.957 37.0129H208.465L210.275 41.764C210.529 42.4421 211.095 44.0826 211.095 44.8747C211.095 46.7121 209.653 46.7683 208.04 46.7683V47.701H219.238V46.7683C217.316 46.6277 216.693 46.0621 215.279 42.4421L204.338 14.3367H203.461L195.402 35.7411Z" fill="#1152A2"/>
<path fill-rule="evenodd" clip-rule="evenodd" d="M197.691 34.977L202.753 21.3485L207.844 34.977H197.691Z" fill="white"/>
<path fill-rule="evenodd" clip-rule="evenodd" d="M138.681 27.0043C139.445 22.8765 141.254 21.6031 143.827 21.6031C147.503 21.6031 147.983 24.7419 148.294 27.0043H138.681Z" fill="white"/>
<path fill-rule="evenodd" clip-rule="evenodd" d="M91.7143 40.7172C86.1444 40.7172 85.0977 32.0648 85.0977 28.5588C85.0977 23.6671 87.6428 21.2079 90.555 21.2079C94.7968 21.2079 97.1716 26.3543 97.1716 32.207C97.1716 38.9361 94.061 40.7172 91.7143 40.7172Z" fill="white"/>
</g>
<defs>
<clipPath id="clip0_2143_16392">
<rect width="274.852" height="62.2447" fill="white" transform="translate(0 0.0429688)"/>
</clipPath>
</defs>
</svg>
