<svg width="172" height="57" viewBox="0 0 172 57" fill="none" xmlns="http://www.w3.org/2000/svg">
<g clip-path="url(#clip0_2143_16346)">
<path d="M40.5296 21.4217L26.0896 29.8887V45.451C34.9142 44.3141 41.7312 36.8546 41.7312 27.8155C41.7312 25.5607 41.303 23.4061 40.5296 21.4217ZM5.76172 27.8155C5.76172 36.8393 12.5546 44.2879 21.356 45.4452V29.7963L7.12612 21.0124C6.24875 23.1088 5.76172 25.4051 5.76172 27.8155ZM23.7461 10.0245C18.1184 10.0245 13.0969 12.5832 9.79895 16.5863L23.4909 24.7843L37.9476 16.9061C34.6569 12.7206 29.5213 10.0245 23.7461 10.0245Z" fill="white"/>
<path d="M23.7323 24.6525V22.7895C23.7323 22.7895 23.877 22.3693 24.529 22.4514C25.1811 22.5329 24.7573 22.0436 25.2305 22.2072C25.703 22.37 25.5234 22.0764 25.9472 22.1091C26.371 22.1418 26.7301 22.876 26.9256 22.7778C27.1212 22.6797 26.5019 21.9135 27.2513 21.8161C28.0015 21.718 27.8212 21.3749 28.213 21.1307C28.6048 20.8864 28.0989 20.5608 28.7676 20.3652C29.4356 20.169 31.5873 19.272 31.9783 19.2073C32.3694 19.1426 32.272 18.8976 31.1475 18.8162C31.1475 18.8162 31.3757 18.4251 31.604 18.4738C31.8322 18.5225 32.4348 18.9129 32.6958 18.7995C32.9568 18.6861 33.5601 18.098 33.4133 17.9519C33.2664 17.8058 32.4843 18.2943 32.0765 17.9686C31.6687 17.6422 33.1036 17.2686 32.6631 16.9742C32.2233 16.6805 31.9296 16.8761 31.5386 17.0556C31.1475 17.2352 31.5546 15.801 30.8044 16.0947C30.055 16.3876 30.3486 16.6478 30.3159 17.0716C30.2832 17.4954 30.2999 17.5121 30.039 17.6749C29.778 17.8385 29.9576 18.6047 29.4356 18.6207C28.9137 18.6374 28.8657 18.5712 29.1914 18.327C29.5171 18.0827 29.1914 18.0013 28.7676 17.9686C28.3438 17.9359 29.0119 17.6103 29.3542 17.6422C29.6966 17.6749 29.1747 17.0883 28.6855 17.0716C28.197 17.0556 27.2026 17.0716 27.1859 16.73C27.1699 16.3876 27.1379 16.0132 28.5881 15.6214C30.039 15.2296 30.43 15.0348 29.3542 14.6597C28.2784 14.2847 28.3271 14.1545 27.1699 14.5289C26.0126 14.904 25.6703 13.9103 24.9528 13.9103C24.2361 13.9103 22.8993 14.3174 22.5896 14.1873C22.28 14.0564 22.2313 13.4538 21.4157 13.6006C20.6008 13.7475 18.8243 13.6821 18.8083 14.0731C18.7916 14.4642 19.2968 14.7085 18.189 14.6925C17.0804 14.6757 17.4061 14.9534 16.9983 15.3939C16.5912 15.8337 15.6782 16.2081 15.7764 16.4203C15.8738 16.6326 15.5968 17.2679 16.379 17.0069C17.1611 16.7467 17.8946 16.1266 18.4979 16.1266C19.1012 16.1266 20.3726 15.9798 20.6822 16.453C20.9919 16.9255 21.8882 18.1489 21.5465 18.556C21.2042 18.9638 20.699 19.5351 20.7964 20.35C20.8945 21.1648 20.2752 21.5406 20.5681 21.915C20.8618 22.2901 21.1882 23.2031 21.628 23.1704C22.0677 23.1376 21.5465 22.7458 21.4651 22.5176C21.3837 22.2901 21.335 21.7514 21.6767 22.0938C22.019 22.4369 22.1172 22.8934 22.1499 23.5774L23.491 24.7841L23.7323 24.6525Z" fill="#1152A2"/>
<path d="M32.1537 15.9246C32.1537 15.9246 32.1784 15.6208 31.9116 15.6208C31.6441 15.6208 31.6565 15.354 32.0206 15.2202C32.3841 15.0872 31.9356 14.9905 31.7779 14.7354C31.6201 14.481 32.2751 13.9583 32.4568 14.3952C32.6392 14.8328 33.5733 15.6949 33.9615 15.8032C34.3496 15.9115 34.2762 16.3004 34.0582 16.5788C33.8401 16.8579 33.8037 16.2146 33.5006 16.2757C33.1975 16.3368 33.2702 16.8819 32.6632 16.4334C32.057 15.9849 32.1537 15.9246 32.1537 15.9246Z" fill="#1152A2"/>
<path d="M27.6813 28.9557C27.6813 28.9557 28.0782 29.5437 28.2294 29.5437C28.3805 29.5437 27.9568 28.6649 28.7135 28.6649C29.4709 28.6649 29.2885 28.2716 29.6672 28.4679C30.0466 28.6649 30.5765 28.7405 30.9552 28.3625C30.9552 28.3625 31.5004 28.513 31.712 28.2106C31.9242 27.9082 32.1059 28.3022 32.2877 28.8168C32.4694 29.3315 32.4999 29.5742 32.1365 29.9072C31.773 30.2401 32.1365 30.2401 32.7114 30.1492C33.2872 30.0584 33.3177 29.9668 33.7109 30.573C34.1049 31.1793 35.8008 30.6639 35.8313 31.0273C35.8619 31.3908 35.6496 32.0879 34.6806 32.5422C34.6806 32.5422 35.2861 32.9965 34.9227 33.5417C34.5592 34.0869 34.1355 34.9955 33.772 34.6924C33.4085 34.3893 32.8023 33.9051 32.8023 34.8138C32.8023 35.7224 32.5603 35.5705 32.348 35.9339C32.1365 36.2974 31.4699 37.3281 30.9552 36.7219C30.4399 36.1157 30.8942 37.8726 30.8942 37.8726C30.8942 37.8726 30.8637 38.2055 30.4704 38.4178C30.0764 38.63 30.4704 39.5387 30.5307 40.0838C30.5918 40.629 31.4997 41.9622 30.743 41.8102C29.9856 41.6583 29.0471 40.8405 28.9861 39.8716C28.9257 38.9026 28.6531 37.6611 28.1385 36.9036C27.6231 36.1462 28.6531 35.995 28.1683 34.5412C27.6842 33.0874 27.9866 33.3302 27.2597 32.5422C26.5328 31.7542 26.8962 30.6035 27.3811 30.1492L27.2342 29.2173L27.6813 28.9557Z" fill="#1152A2"/>
<path d="M23.519 26.681L3.24708 14.7365L22.6554 3.42297V10.0247H24.8369V3.45859L44.2278 15.1763L23.519 26.681ZM7.82295 36.0268L2.20834 39.0253L2.18217 16.6403L22.4134 28.5615V52.3727L3.33068 40.8971L8.84934 37.9502L7.82295 36.0268ZM44.2889 41.3449L24.5941 52.4345V28.579L44.2532 17.6579L45.3123 17.0692L45.3262 39.4193L39.814 35.9389L38.6495 37.7838L44.2889 41.3449ZM47.4916 15.2163C47.4916 15.1559 47.4778 15.0971 47.4683 15.0382C47.4633 15.0077 47.4633 14.9749 47.456 14.9451C47.4415 14.887 47.4153 14.8347 47.3913 14.7801C47.3768 14.7481 47.3688 14.714 47.3513 14.6842C47.3251 14.6377 47.2895 14.5977 47.2568 14.5555C47.2321 14.5228 47.2117 14.4879 47.1827 14.4581C47.1565 14.4305 47.1231 14.4101 47.094 14.3861C47.0518 14.3505 47.0133 14.312 46.9653 14.2829L24.3092 0.592403C23.9668 0.385235 23.5415 0.382326 23.1963 0.583679L0.541543 13.7901C0.470307 13.8308 0.409248 13.8831 0.350368 13.9376C0.341646 13.9464 0.329288 13.9522 0.320565 13.9616C0.119939 14.1623 0.000726905 14.4385 0 14.73C0 14.7322 0.000726506 14.7329 0.000726506 14.7351L0.0298034 40.8426C0.0298034 41.2249 0.230429 41.5797 0.558263 41.7767L22.9411 55.2346C22.944 55.2368 22.9477 55.2368 22.9506 55.2389C22.952 55.2397 22.9527 55.2411 22.9542 55.2418C22.9985 55.268 23.048 55.2818 23.0945 55.3007C23.1359 55.3174 23.1759 55.3414 23.2188 55.3523C23.3118 55.3785 23.4085 55.3909 23.5045 55.3909C23.6891 55.3909 23.8737 55.3443 24.0395 55.2513L46.9522 42.3487C47.2946 42.1561 47.5083 41.7912 47.5083 41.3987L47.4916 15.2163Z" fill="white"/>
<path d="M53.0776 32.2844C53.0776 32.384 53.0551 32.5192 52.9642 32.5861C52.8167 32.6493 52.6458 32.6813 52.4568 32.6813H51.8593V31.8265H52.3151C52.3696 31.8265 52.3878 31.8265 52.4568 31.8388C52.7076 31.8388 52.8407 31.8977 52.9279 31.95C53.002 31.9929 53.0776 32.0664 53.0776 32.2844ZM54.341 33.8756C54.245 34.1475 54.0808 34.3786 53.8634 34.5713C53.8569 34.5785 53.8481 34.5829 53.8409 34.5902L53.774 34.4506L53.1474 33.1538C53.3117 33.1029 53.46 33.0121 53.5923 32.8819C53.7391 32.7104 53.8176 32.4894 53.8176 32.2415C53.8176 31.8992 53.694 31.6484 53.4403 31.4761C53.2274 31.3387 52.8981 31.2588 52.4009 31.2406H51.1164V34.6396H51.8593V33.2672H52.3667L53.0013 34.5662L53.0369 34.6396H53.7813C53.5886 34.8199 53.3691 34.9653 53.1205 35.0663C52.8937 35.1644 52.6451 35.2139 52.3965 35.2313H52.2657C51.9662 35.2313 51.6929 35.1833 51.4137 35.0663C51.1477 34.9514 50.902 34.7893 50.6839 34.5713C50.4695 34.3786 50.3096 34.13 50.2122 33.8509C50.0944 33.5827 50.0304 33.3086 50.0304 33.007C50.0304 32.714 50.0944 32.432 50.2122 32.1492C50.327 31.8926 50.4877 31.6433 50.7006 31.4121C50.9158 31.2137 51.1477 31.0516 51.4297 30.9367C51.6929 30.8393 51.9662 30.7696 52.2657 30.7696H52.3965C52.6655 30.7892 52.9133 30.8532 53.1394 30.9367C53.4025 31.0516 53.6541 31.2137 53.8634 31.4289C54.0808 31.6433 54.2269 31.8701 54.341 32.1492C54.4558 32.4153 54.5118 32.714 54.5118 33.007C54.5118 33.3261 54.4558 33.619 54.341 33.8756ZM54.9778 31.8788C54.8476 31.5132 54.6354 31.197 54.365 30.9331C54.0742 30.6525 53.7711 30.4308 53.4025 30.2942C53.0958 30.1604 52.7694 30.0884 52.4176 30.0652H52.2642C51.8659 30.0652 51.501 30.1466 51.1542 30.284C50.7857 30.4308 50.476 30.6525 50.2056 30.9135C49.9439 31.197 49.7099 31.5306 49.5558 31.8955C49.4155 32.2415 49.3442 32.6261 49.3442 33.0077C49.3442 33.3922 49.4024 33.7579 49.5558 34.1235C49.7099 34.4659 49.9214 34.7952 50.1889 35.0656C50.476 35.3534 50.7857 35.5657 51.1542 35.7191C51.501 35.8746 51.8659 35.9502 52.2642 35.9502C52.3231 35.9502 52.358 35.9306 52.4176 35.9306C52.7432 35.9139 53.0762 35.8557 53.3829 35.7191C53.7486 35.5657 54.0742 35.3534 54.365 35.0656C54.6354 34.7952 54.8476 34.492 54.9778 34.1235C55.134 33.7811 55.2096 33.4097 55.2096 33.0077C55.2096 32.6101 55.134 32.2415 54.9778 31.8788Z" fill="white"/>
<path d="M64.2578 40.7107C64.6322 40.8474 65.0233 40.9855 65.3824 41.0545C65.4914 41.0545 65.6172 41.3271 65.6172 41.6702C65.6331 42.3099 65.6644 43.1102 65.6957 43.771C65.7116 44.2507 65.6026 44.6396 65.4296 44.6396C65.3518 44.6396 65.2115 44.3649 65.1323 44.0232C64.976 43.3145 64.7412 42.6966 64.4759 42.4C63.8042 41.5786 63.0068 41.0764 62.1622 41.0764C59.6762 41.0764 58.5044 43.9527 58.5044 47.4266C58.5044 48.9567 58.6912 50.2811 59.035 51.2872C59.8964 53.8001 61.3182 54.6884 62.5373 54.6884C62.7401 54.6884 63.5077 54.644 64.0543 54.1643C64.6322 53.6845 65.0553 53.0216 65.4143 52.0868C65.6026 51.5838 65.7116 51.3788 65.8359 51.3788C66.0082 51.3788 66.0082 51.9719 65.9617 52.222C65.8825 52.7933 65.6331 53.8001 65.4914 54.2108C65.4463 54.4158 65.1643 54.78 64.9295 54.9428C64.7107 55.0547 63.632 55.6035 62.1927 55.6035C59.8797 55.6035 58.2383 54.0959 57.5979 53.0216C57.0041 52.0192 56.2837 50.4193 56.2837 47.8831C56.2837 45.1187 57.3479 43.1786 58.0043 42.4C59.3331 40.8009 60.9432 40.3444 62.2247 40.3444C62.9443 40.3444 63.6945 40.5043 64.2578 40.7107Z" fill="white"/>
<path d="M70.6815 42.31C70.1508 43.0631 69.5875 44.7081 69.5875 47.4267C69.5875 50.9442 71.0573 54.7583 73.3398 54.7583C74.1997 54.7583 74.7303 54.1179 74.9339 53.8213C75.591 52.8618 76.1369 50.897 76.1369 48.4546C76.1369 46.6489 75.6535 43.9085 74.5123 42.3784C73.9795 41.6914 73.1355 41.1441 72.4486 41.1441C71.7449 41.1441 71.0413 41.7845 70.6815 42.31ZM78.2791 47.7458C78.2791 50.7378 77.4039 52.6808 76.3099 53.9594C75.4187 54.964 74.0899 55.6037 72.8862 55.6037C71.2448 55.6037 69.8063 54.6885 68.8206 53.1598C67.9767 51.8354 67.4766 50.029 67.4766 47.929C67.4766 45.1413 68.3205 43.3597 69.4937 41.9887C70.1974 41.1884 71.5109 40.3445 72.8229 40.3445C76.2779 40.3445 78.2791 44.091 78.2791 47.7458Z" fill="white"/>
<path d="M84.8448 42.1714C84.4857 41.6226 84.0008 41.3718 83.5792 41.3718C83.5153 41.3718 83.1089 41.4416 82.9846 41.5317C82.9061 41.6008 82.8116 41.8981 82.7971 42.0122C82.7498 42.7878 82.6873 46.7865 82.7498 47.3797C82.7651 47.517 82.8756 47.6552 82.9527 47.6552C83.7501 47.6552 84.469 47.3106 84.642 47.1514C85.0636 46.6949 85.5164 45.8721 85.5164 44.5927C85.5164 43.9996 85.3762 42.9717 84.8448 42.1714ZM86.3611 47.243C86.2986 47.3106 85.97 47.5636 85.7512 47.7235C85.6727 47.7671 85.6887 47.951 85.7193 48.0426C86.0166 48.9563 87.2988 52.1089 88.081 53.4333C88.5026 54.1639 88.9562 54.4386 89.425 54.576C89.582 54.6204 89.7063 54.8043 89.7063 54.8951C89.7063 55.0325 89.5653 55.1924 89.4563 55.239C89.2062 55.3734 88.6123 55.4207 88.4088 55.4207C86.9862 55.4207 86.3771 54.5993 86.0485 53.9363C85.6109 53.0677 84.8128 51.1945 84.1571 49.5502C84.0154 49.2078 83.7821 48.7041 83.6563 48.5914C83.5473 48.4548 83.2027 48.2941 82.9061 48.2941C82.8436 48.2941 82.7498 48.4075 82.7346 48.5224C82.7033 48.9789 82.7346 52.0188 82.7811 53.0677C82.8291 54.0497 82.9374 54.2794 83.6563 54.552C83.9216 54.6669 84.0321 54.8268 84.0321 54.986C84.0321 55.239 83.7355 55.3291 83.5473 55.3291C82.9999 55.3291 82.3122 55.1924 81.5461 55.1924C80.9987 55.1924 80.2166 55.2833 80.045 55.2833C79.654 55.2833 79.5449 55.1234 79.5449 54.9169C79.5449 54.7803 79.7165 54.6436 79.92 54.552C80.6396 54.2329 80.8112 53.9596 80.8584 53.2276C80.9522 51.4685 80.9522 49.5502 80.9522 47.6079C80.9522 45.1641 80.9202 43.2218 80.8744 42.6061C80.8424 42.0573 80.7022 41.7149 79.9665 41.4627C79.7477 41.3718 79.5769 41.2133 79.5769 41.0287C79.5769 40.8702 79.7637 40.7103 80.0298 40.7103H81.1703C81.7489 40.7103 83.0464 40.5955 83.8911 40.5955C84.61 40.5955 85.8603 40.6878 86.6112 41.6008C87.096 42.1714 87.4551 43.2683 87.4551 44.3187C87.4551 45.5515 87.0488 46.4427 86.3611 47.243Z" fill="white"/>
<path d="M102.696 42.31C102.166 43.0631 101.603 44.7081 101.603 47.4267C101.603 50.9442 103.073 54.7583 105.355 54.7583C106.215 54.7583 106.745 54.1179 106.95 53.8213C107.607 52.8618 108.154 50.897 108.154 48.4546C108.154 46.6489 107.669 43.9085 106.528 42.3784C105.995 41.6914 105.153 41.1441 104.464 41.1441C103.761 41.1441 103.057 41.7845 102.696 42.31ZM110.295 47.7458C110.295 50.7378 109.42 52.6808 108.326 53.9594C107.434 54.964 106.106 55.6037 104.901 55.6037C103.26 55.6037 101.822 54.6885 100.836 53.1598C99.9923 51.8354 99.4922 50.029 99.4922 47.929C99.4922 45.1413 100.336 43.3597 101.509 41.9887C102.213 41.1884 103.526 40.3445 104.839 40.3445C108.294 40.3445 110.295 44.091 110.295 47.7458Z" fill="white"/>
<path d="M117.24 42.1714C116.855 41.6226 116.335 41.3718 115.884 41.3718C115.815 41.3718 115.38 41.4416 115.247 41.5317C115.163 41.6008 115.061 41.8981 115.045 42.0122C114.995 42.7878 114.928 46.7865 114.995 47.3797C115.012 47.517 115.128 47.6552 115.213 47.6552C116.067 47.6552 116.837 47.3106 117.023 47.1514C117.474 46.6949 117.959 45.8721 117.959 44.5927C117.959 43.9996 117.809 42.9717 117.24 42.1714ZM118.864 47.243C118.798 47.3106 118.445 47.5636 118.211 47.7235C118.127 47.7671 118.144 47.951 118.177 48.0426C118.496 48.9563 119.869 52.1089 120.708 53.4333C121.16 54.1639 121.646 54.4386 122.148 54.576C122.315 54.6204 122.45 54.8043 122.45 54.8951C122.45 55.0325 122.298 55.1924 122.181 55.239C121.914 55.3734 121.277 55.4207 121.059 55.4207C119.535 55.4207 118.88 54.5993 118.529 53.9363C118.061 53.0677 117.206 51.1945 116.502 49.5502C116.352 49.2078 116.102 48.7041 115.966 48.5914C115.849 48.4548 115.481 48.2941 115.163 48.2941C115.095 48.2941 114.995 48.4075 114.978 48.5224C114.944 48.9789 114.978 52.0188 115.029 53.0677C115.079 54.0497 115.196 54.2794 115.966 54.552C116.251 54.6669 116.369 54.8268 116.369 54.986C116.369 55.239 116.051 55.3291 115.849 55.3291C115.263 55.3291 114.526 55.1924 113.706 55.1924C113.119 55.1924 112.281 55.2833 112.097 55.2833C111.678 55.2833 111.561 55.1234 111.561 54.9169C111.561 54.7803 111.744 54.6436 111.963 54.552C112.734 54.2329 112.918 53.9596 112.968 53.2276C113.069 51.4685 113.069 49.5502 113.069 47.6079C113.069 45.1641 113.035 43.2218 112.985 42.6061C112.952 42.0573 112.801 41.7149 112.013 41.4627C111.778 41.3718 111.595 41.2133 111.595 41.0287C111.595 40.8702 111.795 40.7103 112.08 40.7103H113.303C113.923 40.7103 115.314 40.5955 116.219 40.5955C116.988 40.5955 118.328 40.6878 119.133 41.6008C119.652 42.1714 120.037 43.2683 120.037 44.3187C120.037 45.5515 119.602 46.4427 118.864 47.243Z" fill="white"/>
<path d="M127.521 48.5917C127.287 47.5166 126.599 44.7529 126.38 43.9998C126.35 43.8407 126.255 43.8843 126.208 44.0682C125.927 45.1643 125.176 48.0429 125.083 48.5917C125.067 48.7044 125.129 48.8199 125.192 48.8199C125.802 48.796 126.959 48.7727 127.459 48.7727C127.474 48.7727 127.537 48.6826 127.521 48.5917ZM127.491 40.848C127.63 41.3953 127.912 42.5598 128.115 43.406C128.975 46.9453 130.039 51.0806 130.351 52.2219C130.867 54.0733 131.21 54.3015 131.743 54.5298C132.009 54.6439 132.149 54.7806 132.149 54.9427C132.149 55.1011 131.993 55.2836 131.632 55.2836C131.242 55.2836 130.069 55.1927 129.584 55.1927C129.069 55.1927 128.459 55.2392 128.053 55.2392C127.741 55.2392 127.553 55.1011 127.553 54.8954C127.553 54.7806 127.662 54.5996 127.96 54.5087C128.6 54.2797 128.615 53.9119 128.584 53.5477C128.554 52.9531 128.224 51.6745 127.865 50.2127C127.85 50.1226 127.678 49.8696 127.491 49.8696C125.833 49.8478 125.083 49.9154 124.864 49.9394C124.817 49.9394 124.722 50.0971 124.692 50.1669C124.192 51.9943 124.019 53.0215 124.019 53.4801C124.019 53.9366 124.175 54.2557 124.754 54.484C125.067 54.5996 125.208 54.7362 125.208 54.9427C125.208 55.1237 124.99 55.2392 124.739 55.2392C124.457 55.2392 124.066 55.1927 123.488 55.1927C122.877 55.1927 122.175 55.2836 121.94 55.2836C121.58 55.2836 121.487 55.1455 121.487 55.011C121.487 54.8489 121.549 54.689 121.877 54.5523C122.674 54.2332 122.847 53.8683 123.3 52.5192C123.675 51.423 125.364 44.9121 126.02 42.6514C126.037 42.6064 126.099 42.3316 126.099 42.2415C126.099 42.1717 126.083 42.1033 126.129 42.0576C126.35 41.7384 126.833 40.8923 126.943 40.6423C127.037 40.4358 127.146 40.3442 127.224 40.3442C127.303 40.3442 127.365 40.3915 127.491 40.848Z" fill="white"/>
<path d="M139.446 40.688C140.147 40.5957 140.361 40.5041 140.546 40.3224C140.661 40.2075 140.719 40.1392 140.775 40.1392C140.847 40.1392 140.961 40.3914 140.904 40.7106C140.791 41.351 140.647 42.5155 140.604 43.3601C140.604 43.5666 140.503 43.9525 140.333 43.9525C140.232 43.9525 140.147 43.8406 140.089 43.2467C139.946 41.9441 139.761 41.7384 139.061 41.6919C138.716 41.6919 137.674 41.7151 137.316 41.8067C137.23 41.8285 137.173 41.9885 137.173 42.0815C137.173 43.1319 137.158 44.8677 137.158 46.8325C137.158 49.4589 137.173 51.8802 137.23 53.0214C137.273 53.7527 137.386 54.2114 138.345 54.5297C138.546 54.5995 138.703 54.8489 138.703 54.9862C138.703 55.1927 138.46 55.2835 138.302 55.2835C138.188 55.2835 136.557 55.1927 136.186 55.1927C135.743 55.1927 134.642 55.3293 134.4 55.3293C134.128 55.3293 133.955 55.2392 133.955 55.0553C133.955 54.8489 134.128 54.6439 134.271 54.5763C135.2 54.2114 135.257 53.9119 135.314 52.3149C135.371 50.9657 135.443 46.4211 135.443 44.6845C135.443 43.3827 135.43 42.6063 135.43 42.0124C135.43 41.8067 135.314 41.6919 135.271 41.6919C135 41.6228 133.971 41.601 133.656 41.601C133.428 41.601 133.027 41.8285 132.869 42.1266C132.726 42.3781 132.569 42.788 132.383 43.3383C132.212 43.7941 132.126 43.9315 132.069 43.9315C131.926 43.9315 131.854 43.6567 131.854 43.4284C131.854 42.9945 132.112 41.5109 132.126 40.3442C132.126 40.2541 132.255 39.8877 132.354 39.8877C132.456 39.8877 132.513 40.0701 132.598 40.2541C132.641 40.3442 132.913 40.5724 133.184 40.6197C133.498 40.664 135.386 40.7556 136.359 40.7556C137.158 40.7556 138.974 40.7324 139.446 40.688Z" fill="white"/>
<path d="M143.153 43.1542C143.107 42.0573 143.107 41.7156 142.341 41.4423C141.965 41.3042 141.871 41.1443 141.871 40.9858C141.871 40.8012 142.091 40.6638 142.372 40.6638C142.825 40.6638 143.637 40.7321 144.154 40.7321C144.92 40.7321 145.467 40.6638 146.014 40.6638C146.28 40.6638 146.5 40.7554 146.5 40.9858C146.5 41.1886 146.28 41.3726 146.014 41.4423C145.232 41.6473 145.185 42.2412 145.154 42.8351C145.107 43.4064 145.093 44.206 145.093 48.1335C145.093 50.8972 145.107 51.8807 145.138 52.5647C145.202 53.9124 145.295 54.1879 146.17 54.5295C146.452 54.6204 146.608 54.7803 146.608 55.0115C146.608 55.239 146.312 55.308 146.123 55.308C145.499 55.308 144.435 55.1707 143.778 55.1932C143.325 55.1932 142.857 55.2608 142.277 55.2608C141.903 55.2608 141.794 55.1016 141.794 54.8726C141.794 54.712 141.934 54.5528 142.262 54.4387C142.981 54.1879 143.091 53.7089 143.122 52.7253C143.169 51.8567 143.201 49.5044 143.201 47.5636C143.201 46.3991 143.201 44.0228 143.153 43.1542Z" fill="white"/>
<path d="M151.048 42.31C150.518 43.0631 149.954 44.7081 149.954 47.4267C149.954 50.9442 151.424 54.7583 153.706 54.7583C154.566 54.7583 155.097 54.1179 155.301 53.8213C155.958 52.8618 156.504 50.897 156.504 48.4546C156.504 46.6489 156.02 43.9085 154.879 42.3784C154.346 41.6914 153.502 41.1441 152.815 41.1441C152.112 41.1441 151.408 41.7845 151.048 42.31ZM158.646 47.7458C158.646 50.7378 157.771 52.6808 156.677 53.9594C155.785 54.964 154.457 55.6037 153.253 55.6037C151.612 55.6037 150.173 54.6885 149.187 53.1598C148.343 51.8354 147.843 50.029 147.843 47.929C147.843 45.1413 148.687 43.3597 149.86 41.9887C150.564 41.1884 151.877 40.3445 153.19 40.3445C156.645 40.3445 158.646 44.091 158.646 47.7458Z" fill="white"/>
<path d="M160.177 40.6427C160.521 40.6427 161.756 40.7321 162.554 40.7321C162.631 40.7321 162.851 40.961 162.897 41.0286C163.131 41.4422 163.569 42.1503 164.211 43.2464C164.976 44.6159 168.04 49.255 168.869 50.5315C168.947 50.6478 169.01 50.4406 169.01 50.3955C169.088 49.7326 169.041 47.1514 169.041 45.2338C169.041 44.4567 168.993 43.3831 168.947 42.7877C168.915 42.3313 168.76 41.8072 167.977 41.5106C167.665 41.395 167.462 41.2591 167.462 40.9858C167.462 40.8237 167.634 40.711 167.915 40.711C168.307 40.711 168.666 40.7321 168.978 40.7321C169.729 40.7321 170.369 40.6201 170.776 40.6201C171.041 40.6201 171.152 40.7553 171.152 40.916C171.152 41.0541 171.041 41.2591 170.761 41.3725C169.948 41.7606 169.87 42.1721 169.791 43.0843C169.745 43.9086 169.635 49.6875 169.635 51.6284C169.635 52.5879 169.729 54.5992 169.729 55.1931C169.729 55.3995 169.557 55.6271 169.479 55.6271C169.151 55.6271 168.775 55.0332 168.634 54.7584C168.338 54.1878 168.04 53.6615 167.618 52.9092C166.15 50.2814 163.601 46.3518 162.21 43.953C162.131 43.8163 162.037 43.9995 162.037 44.0686C162.006 44.685 161.975 45.2091 161.959 47.0154C161.944 50.1913 161.912 51.9249 161.99 53.0458C162.054 53.7764 162.224 54.1645 162.975 54.5084C163.304 54.6443 163.413 54.8042 163.413 54.943C163.413 55.1931 163.195 55.284 162.897 55.284C162.444 55.284 162.084 55.1931 161.537 55.1931C161.194 55.1931 160.318 55.2607 160.052 55.2607C159.832 55.2607 159.646 55.1451 159.646 54.9641C159.646 54.7366 159.832 54.6203 159.988 54.5527C160.708 54.2329 161.083 54.0497 161.13 52.3371C161.209 49.7791 161.412 45.3922 161.412 43.748C161.412 42.835 161.365 42.5602 161.318 42.4694C161.037 41.9671 160.927 41.6472 160.114 41.3725C159.943 41.3267 159.708 41.1442 159.708 40.9858C159.708 40.8011 159.896 40.6427 160.177 40.6427Z" fill="white"/>
<path d="M69.1442 13.8662H76.4678V10.5028C76.4678 5.40062 72.1696 1.26526 66.8661 1.26526C61.5633 1.26526 57.2651 5.40062 57.2651 10.5028V26.0716H57.2731C57.3567 31.104 61.6164 35.1594 66.8661 35.1594C71.8447 35.1594 75.9364 31.5154 76.4198 26.8487L76.4678 26.8538V21.5219H69.1442V25.9611C69.1442 25.9611 69.1442 29.4001 66.9802 29.4001C64.5945 29.4001 64.6505 26.0716 64.6505 26.0716V10.5028C64.6505 10.5028 64.1518 7.15319 66.8697 7.15319C69.5876 7.15319 69.1442 10.6474 69.1442 10.6474V13.8662Z" fill="white"/>
<path d="M163.262 13.8662H170.586V10.5028C170.586 5.40062 166.288 1.26526 160.984 1.26526C155.681 1.26526 151.383 5.40062 151.383 10.5028V26.0716H151.391C151.475 31.104 155.735 35.1594 160.984 35.1594C165.963 35.1594 170.055 31.5154 170.538 26.8487L170.586 26.8538V21.5219H163.262V25.9611C163.262 25.9611 163.262 29.4001 161.098 29.4001C158.713 29.4001 158.769 26.0716 158.769 26.0716V10.5028C158.769 10.5028 158.27 7.15319 160.988 7.15319C163.706 7.15319 163.262 10.6474 163.262 10.6474V13.8662Z" fill="white"/>
<path d="M95.5155 1.93884V26.7139C95.5155 26.7139 95.5155 29.1251 93.1763 29.1251C90.8371 29.1251 90.9113 26.4944 90.9113 26.4944V1.93884H83.5303V26.3483H83.5368C83.6015 31.0027 87.9062 34.7586 93.2134 34.7586C98.5205 34.7586 102.825 31.0027 102.891 26.3483H102.896V1.93884H95.5155Z" fill="white"/>
<path d="M118.895 14.8466H117.244V7.46194H119.062C119.062 7.46194 121.664 7.18135 121.664 10.0628C121.664 12.9443 121.524 14.8466 118.895 14.8466ZM118.895 28.958H117.244V20.1014H119.062C119.062 20.1014 121.664 19.7648 121.664 23.2205C121.664 26.6762 121.696 28.958 118.895 28.958ZM123.986 17.4198C123.986 17.4198 128.404 16.9168 128.404 9.36425C128.404 1.8117 121.748 1.92074 121.748 1.92074H109.884V34.4497H121.524C121.524 34.4497 129.3 35.1534 129.3 26.4829C129.3 17.3646 123.986 17.4198 123.986 17.4198Z" fill="white"/>
<path d="M136.585 1.87598H144.045V34.4028H136.585V1.87598Z" fill="white"/>
<path d="M97.1436 41.8536C96.4828 40.9384 95.4354 40.527 93.8892 40.527C93.1645 40.527 91.8437 40.7109 90.8122 40.7109C90.6676 40.7109 90.3783 40.7109 90.2816 40.732C90.0875 40.7785 89.9429 40.9159 89.9429 41.0983C89.9429 41.235 90.1035 41.3949 90.3129 41.4422C91.1997 41.6006 91.2804 41.967 91.3284 42.7666C91.3611 43.4281 91.3611 48.5447 91.3611 49.276C91.3611 50.4405 91.3131 51.9248 91.2637 52.8393C91.2157 53.8897 91.0223 54.2328 90.2329 54.5083C90.0715 54.5766 89.8462 54.7583 89.8462 54.9175C89.8462 55.1705 90.0715 55.2839 90.4423 55.2839C90.9424 55.2839 91.7311 55.193 92.1985 55.193C92.9072 55.193 93.8245 55.3289 94.2447 55.3289C94.4693 55.3289 94.7426 55.193 94.7426 55.0113C94.7426 54.8041 94.6147 54.6202 94.2927 54.5293C93.3571 54.1877 93.3092 53.7763 93.2932 52.3828C93.2932 51.8122 93.2619 50.3257 93.2619 48.2482C93.2779 45.6437 93.2779 42.8116 93.2932 42.3544C93.3092 41.8289 93.3899 41.5788 93.4378 41.5105C93.5025 41.4422 93.7286 41.304 93.8725 41.304C95.194 41.304 96.0641 43.2223 96.0641 45.0498C96.0641 47.4268 95.0661 48.5673 94.3886 48.5673C94.3886 48.5673 93.5672 48.3608 93.2648 47.751L93.2626 48.648C93.2626 48.648 93.9023 49.3334 94.6598 49.3734C94.8262 49.401 94.9898 49.4127 95.0821 49.4127C95.7094 49.4127 96.5948 48.8886 97.0142 48.3848C97.4809 47.8149 98.0777 46.8082 98.0777 44.9357C98.0777 44.1368 97.901 42.9032 97.1436 41.8536Z" fill="white"/>
</g>
<defs>
<clipPath id="clip0_2143_16346">
<rect width="171.187" height="55.6084" fill="white" transform="translate(0 0.434692)"/>
</clipPath>
</defs>
</svg>
