<svg width="237" height="53" viewBox="0 0 237 53" fill="none" xmlns="http://www.w3.org/2000/svg">
<g clip-path="url(#clip0_2143_16418)">
<path d="M224.11 42.3062C224.11 38.8414 226.921 36.0304 230.382 36.0304C233.845 36.0304 236.653 38.8414 236.653 42.3062C236.653 45.7709 233.845 48.5803 230.382 48.5803C226.921 48.5803 224.11 45.7709 224.11 42.3062Z" fill="#1152A2"/>
<path d="M24.0725 25.6862C24.0725 21.7111 23.305 18.7619 21.7696 16.8405C20.2322 14.9213 17.9039 13.9625 14.7729 13.9625H11.4428V38.2705H13.9909C17.4682 38.2705 20.0163 37.2387 21.639 35.1687C23.2595 33.1025 24.0725 29.9408 24.0725 25.6862ZM35.9494 25.2718C35.9494 32.5139 34.0039 38.0944 30.1126 42.0112C26.2215 45.9299 20.7515 47.8892 13.7002 47.8892H-0.000488281V4.49433H14.6569C21.4554 4.49433 26.7042 6.27591 30.403 9.83693C34.1001 13.3998 35.9494 18.5425 35.9494 25.2724M73.9007 47.8889H84.8027V4.31203H73.9007V47.8889ZM100.118 31.6345C100.118 34.4128 100.481 36.532 101.206 37.9883C101.932 39.4467 103.147 40.1748 104.857 40.1748C106.549 40.1748 107.745 39.4467 108.442 37.9883C109.138 36.532 109.485 34.4128 109.485 31.6345C109.485 28.8705 109.133 26.7858 108.427 25.3788C107.719 23.9674 106.512 23.2612 104.801 23.2612C103.127 23.2612 101.932 23.9642 101.205 25.3622C100.481 26.7623 100.118 28.8524 100.118 31.6345ZM120.581 31.6345C120.581 36.9279 119.195 41.0574 116.414 44.0173C113.636 46.979 109.746 48.461 104.746 48.461C99.9514 48.461 96.1346 46.9464 93.3014 43.9173C90.4648 40.8885 89.0473 36.7953 89.0473 31.6347C89.0473 26.3574 90.4359 22.2569 93.2162 19.3334C95.9965 16.4097 99.8951 14.948 104.915 14.948C108.017 14.948 110.761 15.6254 113.138 16.9782C115.518 18.3308 117.355 20.2687 118.645 22.7929C119.937 25.3133 120.581 28.2624 120.581 31.6345ZM124.911 47.8889H135.815V15.5201H124.911V47.8889ZM124.911 11.6046H135.815V4.31042H124.911V11.6046ZM157.906 39.633C159.378 39.633 161.131 39.2588 163.176 38.5162V46.6607C161.706 47.307 160.309 47.77 158.98 48.0442C157.652 48.3222 156.093 48.4601 154.309 48.4601C150.648 48.4601 148.009 47.5396 146.388 45.7016C144.775 43.8641 143.966 41.0422 143.966 37.2342V23.8904H140.147V15.523H143.966V7.25664L154.953 5.34462V15.5227H161.91V23.8907H154.953V36.4895C154.953 38.5852 155.939 39.633 157.906 39.633ZM183.142 39.633C184.614 39.633 186.367 39.2588 188.412 38.5162V46.6607C186.944 47.307 185.545 47.77 184.216 48.0442C182.886 48.3222 181.332 48.4601 179.545 48.4601C175.884 48.4601 173.245 47.5396 171.628 45.7016C170.011 43.8641 169.201 41.0422 169.201 37.2342V23.8904H165.381V15.523H169.201V7.13155L180.187 5.34462V15.5227H187.147V23.8907H180.187V36.4895C180.187 38.5852 181.172 39.633 183.142 39.633ZM202.17 27.6912C202.319 25.919 202.826 24.6204 203.689 23.7907C204.557 22.9626 205.628 22.5485 206.909 22.5485C208.307 22.5485 209.418 23.0134 210.241 23.9503C211.071 24.8818 211.503 26.1296 211.537 27.6912H202.17ZM217.546 18.7641C214.955 16.222 211.278 14.9488 206.521 14.9488C201.521 14.9488 197.673 16.4107 194.976 19.3342C192.281 22.258 190.933 26.4525 190.933 31.9189C190.933 37.212 192.39 41.2943 195.297 44.1598C198.207 47.0253 202.292 48.4599 207.553 48.4599C210.08 48.4599 212.254 48.2875 214.076 47.9443C215.887 47.6048 217.641 46.9908 219.341 46.1047L217.666 38.81C216.43 39.3152 215.254 39.7036 214.143 39.9594C212.539 40.332 210.779 40.5188 208.862 40.5188C206.76 40.5188 205.102 40.0051 203.886 38.9773C202.669 37.9476 202.022 36.5275 201.947 34.7189H221.436V29.7486C221.436 24.9674 220.14 21.3045 217.546 18.7641ZM50.4195 27.6912C50.5683 25.919 51.0748 24.6204 51.9385 23.7907C52.8041 22.9626 53.8767 22.5485 55.1601 22.5485C56.5539 22.5485 57.6647 23.0134 58.4905 23.9503C59.3197 24.8818 59.7498 26.1296 59.788 27.6912H50.4195ZM65.7971 18.7641C63.2036 16.222 59.5284 14.9488 54.7698 14.9488C49.7679 14.9488 45.9222 16.4107 43.2269 19.3342C40.5318 22.258 39.1817 26.4525 39.1817 31.9189C39.1817 37.212 40.6371 41.2943 43.5483 44.1598C46.4557 47.0253 50.541 48.4599 55.8026 48.4599C58.3288 48.4599 60.5032 48.2875 62.3252 47.9443C64.1365 47.6048 65.8898 46.9908 67.5921 46.1047L65.9152 38.81C64.6791 39.3152 63.5031 39.7036 62.3941 39.9594C60.7864 40.332 59.0277 40.5188 57.1109 40.5188C55.0111 40.5188 53.3507 40.0051 52.1346 38.9773C50.9167 37.9476 50.2707 36.5275 50.1964 34.7189H69.6848V29.7486C69.6848 24.9674 68.3891 21.3045 65.7971 18.7641Z" fill="white"/>
</g>
<defs>
<clipPath id="clip0_2143_16418">
<rect width="236.652" height="51.4297" fill="white" transform="translate(0 0.730591)"/>
</clipPath>
</defs>
</svg>
