<svg width="601" height="521" viewBox="0 0 601 521" fill="none" xmlns="http://www.w3.org/2000/svg">
<g clip-path="url(#clip0_1258_5508)">
<rect x="0.5" y="0.13623" width="600" height="520" rx="30" fill="url(#paint0_linear_1258_5508)"/>
<path fill-rule="evenodd" clip-rule="evenodd" d="M-6.95542 -91.6548V-91.1413L609.23 -91.1414V-91.6548L-6.95542 -91.6548ZM-6.95542 -49.5489V-50.0623L609.23 -50.0624V-49.5489L-6.95542 -49.5489ZM-6.95542 -8.46982V-7.95633H9.60224V33.1227H-6.95542V33.6361H9.60224V74.7152H-6.95542V75.2287H9.60224V116.308H-6.95542V116.821H9.60224V157.9H-6.95542V158.414H9.60224V199.493H-6.95542V200.006H9.60224V241.085H-6.95542V241.599H9.60224V282.678H-6.95542V283.191H9.60224V324.27H-6.95542V324.784H9.60224V365.863H-6.95542V366.376H9.60224V407.455H-6.95542V407.969H9.60224V449.048H-6.95542V449.561H9.60224V490.64H-6.95542V491.154H9.60224V532.233H-6.95542V532.746H9.60224V573.825H-6.95542V574.339H9.60224V608.017H10.1157V574.339H51.1947V608.017H51.7082V574.339H92.7872V608.017H93.3007V574.339H134.38V608.017H134.893V574.339H175.972V608.017H176.486V574.339H217.565V608.017H218.078V574.339H259.157V608.017H259.671V574.339H300.75V608.017H301.263V574.339H342.342V608.017H342.856V574.339H383.935V608.017H384.448V574.339H425.527V608.017H426.041V574.339H467.12V608.017H467.633V574.339H508.712V608.017H509.226V574.339H550.305V608.017H550.818V574.339H591.897V608.017H592.411V574.339H609.23V573.825H592.411V532.746H609.23V532.233H592.411V491.154H609.23V490.64H592.411V449.561H609.23V449.048H592.411V407.969H609.23V407.455H592.411V366.376H609.23V365.863H592.411V324.784H609.23V324.27H592.411V283.191H609.23V282.678H592.411V241.599H609.23V241.085H592.411V200.006H609.23V199.493H592.411V158.414H609.23V157.9H592.411V116.821H609.23V116.308H592.411V75.2286H609.23V74.7152H592.411V33.6361H609.23V33.1226H592.411V-7.95636H609.23V-8.46984L-6.95542 -8.46982ZM591.897 -7.95636H550.818V33.1226H591.897V-7.95636ZM550.305 -7.95636L509.226 -7.95635V33.1226H550.305V-7.95636ZM508.712 -7.95635H467.633V33.1226L508.712 33.1226V-7.95635ZM467.12 -7.95635H426.041V33.1226H467.12V-7.95635ZM425.527 -7.95635H384.448V33.1226H425.527V-7.95635ZM383.935 -7.95635L342.856 -7.95634V33.1226H383.935V-7.95635ZM342.342 -7.95634H301.263V33.1226H342.342V-7.95634ZM300.75 -7.95634H259.671V33.1226H300.75V-7.95634ZM259.157 -7.95634L218.078 -7.95634V33.1226H259.157V-7.95634ZM217.565 -7.95634H176.486V33.1226H217.565V-7.95634ZM175.972 -7.95634H134.893V33.1226H175.972V-7.95634ZM134.38 -7.95634H93.3007V33.1227L134.38 33.1226V-7.95634ZM92.7872 -7.95634L51.7082 -7.95633V33.1227H92.7872V-7.95634ZM51.1947 -7.95633H10.1157V33.1227H51.1947V-7.95633ZM-73.5827 -8.16849H-73.0693V608.017H-73.5827V-8.16849ZM-115.175 -8.16847H-114.662V608.017H-115.175V-8.16847ZM-31.4768 -8.16849H-31.9902V608.017H-31.4768V-8.16849ZM10.1157 74.7152V33.6361H51.1947V74.7152H10.1157ZM51.7082 74.7152V33.6361L92.7872 33.6361V74.7152H51.7082ZM93.3007 74.7152V33.6361H134.38V74.7152H93.3007ZM134.893 74.7152V33.6361H175.972V74.7152L134.893 74.7152ZM176.486 74.7152V33.6361H217.565V74.7152H176.486ZM218.078 74.7152V33.6361L259.157 33.6361V74.7152H218.078ZM259.671 74.7152V33.6361H300.75V74.7152H259.671ZM301.263 74.7152V33.6361H342.342V74.7152H301.263ZM342.856 74.7152V33.6361L383.935 33.6361V74.7152H342.856ZM384.448 74.7152V33.6361H425.527V74.7152H384.448ZM426.041 74.7152V33.6361H467.12V74.7152L426.041 74.7152ZM467.633 74.7152V33.6361H508.712V74.7152H467.633ZM509.226 74.7152V33.6361L550.305 33.6361V74.7152H509.226ZM550.818 74.7152V33.6361H591.897V74.7152H550.818ZM10.1157 75.2287V116.308H51.1947V75.2287H10.1157ZM51.7082 75.2287V116.308H92.7872V75.2287H51.7082ZM93.3007 75.2287V116.308H134.38V75.2287H93.3007ZM134.893 75.2287V116.308L175.972 116.308V75.2287L134.893 75.2287ZM176.486 75.2287V116.308H217.565V75.2287H176.486ZM218.078 75.2287V116.308H259.157V75.2287H218.078ZM259.671 75.2287V116.308H300.75V75.2287H259.671ZM301.263 75.2287V116.308H342.342V75.2287H301.263ZM342.856 75.2287V116.308H383.935V75.2287H342.856ZM384.448 75.2287V116.308H425.527V75.2287H384.448ZM426.041 75.2287V116.308L467.12 116.308V75.2286L426.041 75.2287ZM467.633 75.2286V116.308H508.712V75.2286H467.633ZM509.226 75.2286V116.308H550.305V75.2286H509.226ZM550.818 75.2286V116.308H591.897V75.2286H550.818ZM10.1157 157.9V116.821H51.1947V157.9H10.1157ZM51.7082 157.9V116.821H92.7872V157.9H51.7082ZM93.3007 157.9V116.821H134.38V157.9H93.3007ZM134.893 157.9V116.821L175.972 116.821V157.9L134.893 157.9ZM176.486 157.9V116.821H217.565V157.9H176.486ZM218.078 157.9V116.821H259.157V157.9H218.078ZM259.671 157.9V116.821H300.75V157.9H259.671ZM301.263 157.9V116.821H342.342V157.9H301.263ZM342.856 157.9V116.821H383.935V157.9H342.856ZM384.448 157.9V116.821H425.527V157.9H384.448ZM426.041 157.9V116.821L467.12 116.821V157.9L426.041 157.9ZM467.633 157.9V116.821H508.712V157.9H467.633ZM509.226 157.9V116.821H550.305V157.9H509.226ZM550.818 157.9V116.821H591.897V157.9H550.818ZM10.1157 158.414V199.493H51.1947V158.414H10.1157ZM51.7082 158.414V199.493H92.7872V158.414H51.7082ZM93.3007 158.414V199.493H134.38V158.414H93.3007ZM134.893 158.414V199.493H175.972V158.414L134.893 158.414ZM176.486 158.414V199.493H217.565V158.414H176.486ZM218.078 158.414V199.493H259.157V158.414H218.078ZM259.671 158.414V199.493H300.75V158.414H259.671ZM301.263 158.414V199.493H342.342V158.414H301.263ZM342.856 158.414V199.493H383.935V158.414H342.856ZM384.448 158.414V199.493H425.527V158.414H384.448ZM426.041 158.414V199.493H467.12V158.414L426.041 158.414ZM467.633 158.414V199.493H508.712V158.414H467.633ZM509.226 158.414V199.493H550.305V158.414H509.226ZM550.818 158.414V199.493H591.897V158.414H550.818ZM10.1157 241.085V200.006H51.1947V241.085H10.1157ZM51.7082 241.085V200.006H92.7872V241.085H51.7082ZM93.3007 241.085V200.006H134.38V241.085H93.3007ZM134.893 241.085V200.006H175.972V241.085H134.893ZM176.486 241.085V200.006H217.565V241.085H176.486ZM218.078 241.085V200.006H259.157V241.085H218.078ZM259.671 241.085V200.006H300.75V241.085H259.671ZM301.263 241.085V200.006H342.342V241.085H301.263ZM342.856 241.085V200.006H383.935V241.085H342.856ZM384.448 241.085V200.006H425.527V241.085H384.448ZM426.041 241.085V200.006H467.12V241.085H426.041ZM467.633 241.085V200.006H508.712V241.085H467.633ZM509.226 241.085V200.006H550.305V241.085H509.226ZM550.818 241.085V200.006H591.897V241.085H550.818ZM10.1157 241.599V282.678H51.1947V241.599H10.1157ZM51.7082 241.599V282.678H92.7872V241.599H51.7082ZM93.3007 241.599V282.678H134.38V241.599H93.3007ZM134.893 241.599V282.678H175.972V241.599H134.893ZM176.486 241.599V282.678H217.565V241.599H176.486ZM218.078 241.599V282.678H259.157V241.599H218.078ZM259.671 241.599V282.678H300.75V241.599H259.671ZM301.263 241.599V282.678H342.342V241.599H301.263ZM342.856 241.599V282.678H383.935V241.599H342.856ZM384.448 241.599V282.678H425.527V241.599H384.448ZM426.041 241.599V282.678H467.12V241.599H426.041ZM467.633 241.599V282.678H508.712V241.599H467.633ZM509.226 241.599V282.678H550.305V241.599H509.226ZM550.818 241.599V282.678H591.897V241.599H550.818ZM10.1157 324.27V283.191H51.1947V324.27H10.1157ZM51.7082 324.27V283.191H92.7872V324.27H51.7082ZM93.3007 324.27V283.191H134.38V324.27H93.3007ZM134.893 324.27V283.191H175.972V324.27H134.893ZM176.486 324.27V283.191H217.565V324.27H176.486ZM218.078 324.27V283.191H259.157V324.27H218.078ZM259.671 324.27V283.191H300.75V324.27H259.671ZM301.263 324.27V283.191H342.342V324.27H301.263ZM342.856 324.27V283.191H383.935V324.27H342.856ZM384.448 324.27V283.191H425.527V324.27H384.448ZM426.041 324.27V283.191H467.12V324.27H426.041ZM467.633 324.27V283.191H508.712V324.27H467.633ZM509.226 324.27V283.191H550.305V324.27H509.226ZM550.818 324.27V283.191H591.897V324.27H550.818ZM10.1157 324.784V365.863H51.1947V324.784H10.1157ZM51.7082 324.784V365.863H92.7872V324.784H51.7082ZM93.3007 324.784V365.863H134.38V324.784H93.3007ZM134.893 324.784V365.863H175.972V324.784H134.893ZM176.486 324.784V365.863H217.565V324.784H176.486ZM218.078 324.784V365.863H259.157V324.784H218.078ZM259.671 324.784V365.863H300.75V324.784H259.671ZM301.263 324.784V365.863H342.342V324.784H301.263ZM342.856 324.784V365.863H383.935V324.784H342.856ZM384.448 324.784V365.863H425.527V324.784H384.448ZM426.041 324.784V365.863H467.12V324.784H426.041ZM467.633 324.784V365.863H508.712V324.784H467.633ZM509.226 324.784V365.863H550.305V324.784H509.226ZM550.818 324.784V365.863H591.897V324.784H550.818ZM10.1157 407.455V366.376H51.1947V407.455H10.1157ZM51.7082 407.455V366.376H92.7872V407.455H51.7082ZM93.3007 407.455V366.376H134.38V407.455H93.3007ZM134.893 407.455V366.376H175.972V407.455H134.893ZM176.486 407.455V366.376H217.565V407.455H176.486ZM218.078 407.455V366.376H259.157V407.455H218.078ZM259.671 407.455V366.376H300.75V407.455H259.671ZM301.263 407.455V366.376H342.342V407.455H301.263ZM342.856 407.455V366.376H383.935V407.455H342.856ZM384.448 407.455V366.376H425.527V407.455H384.448ZM426.041 407.455V366.376H467.12V407.455H426.041ZM467.633 407.455V366.376H508.712V407.455H467.633ZM509.226 407.455V366.376H550.305V407.455H509.226ZM550.818 407.455V366.376H591.897V407.455H550.818ZM10.1157 407.969V449.048H51.1947V407.969H10.1157ZM51.7082 407.969V449.048H92.7872V407.969H51.7082ZM93.3007 407.969V449.048H134.38V407.969H93.3007ZM134.893 407.969V449.048H175.972V407.969H134.893ZM176.486 407.969V449.048H217.565V407.969H176.486ZM218.078 407.969V449.048H259.157V407.969H218.078ZM259.671 407.969V449.048H300.75V407.969H259.671ZM301.263 407.969V449.048H342.342V407.969H301.263ZM342.856 407.969V449.048H383.935V407.969H342.856ZM384.448 407.969V449.048H425.527V407.969H384.448ZM426.041 407.969V449.048H467.12V407.969H426.041ZM467.633 407.969V449.048H508.712V407.969H467.633ZM509.226 407.969V449.048H550.305V407.969H509.226ZM550.818 407.969V449.048H591.897V407.969H550.818ZM10.1157 490.64V449.561H51.1947V490.64H10.1157ZM51.7082 490.64V449.561H92.7872V490.64H51.7082ZM93.3007 490.64V449.561H134.38V490.64H93.3007ZM134.893 490.64V449.561H175.972V490.64H134.893ZM176.486 490.64V449.561H217.565V490.64H176.486ZM218.078 490.64V449.561H259.157V490.64H218.078ZM259.671 490.64V449.561H300.75V490.64H259.671ZM301.263 490.64V449.561H342.342V490.64H301.263ZM342.856 490.64V449.561H383.935V490.64H342.856ZM384.448 490.64V449.561H425.527V490.64H384.448ZM426.041 490.64V449.561H467.12V490.64H426.041ZM467.633 490.64V449.561H508.712V490.64H467.633ZM509.226 490.64V449.561H550.305V490.64H509.226ZM550.818 490.64V449.561H591.897V490.64H550.818ZM10.1157 491.154V532.233H51.1947V491.154H10.1157ZM51.7082 491.154V532.233H92.7872V491.154H51.7082ZM93.3007 491.154V532.233H134.38V491.154H93.3007ZM134.893 491.154V532.233H175.972V491.154H134.893ZM176.486 491.154V532.233H217.565V491.154H176.486ZM218.078 491.154V532.233H259.157V491.154H218.078ZM259.671 491.154V532.233H300.75V491.154H259.671ZM301.263 491.154V532.233H342.342V491.154H301.263ZM342.856 491.154V532.233H383.935V491.154H342.856ZM384.448 491.154V532.233H425.527V491.154H384.448ZM426.041 491.154V532.233H467.12V491.154H426.041ZM467.633 491.154V532.233H508.712V491.154H467.633ZM509.226 491.154V532.233H550.305V491.154H509.226ZM550.818 491.154V532.233H591.897V491.154H550.818ZM10.1157 573.825V532.746H51.1947V573.825H10.1157ZM51.7082 573.825V532.746H92.7872V573.825H51.7082ZM93.3007 573.825V532.746H134.38V573.825H93.3007ZM134.893 573.825V532.746H175.972V573.825H134.893ZM176.486 573.825V532.746H217.565V573.825H176.486ZM218.078 573.825V532.746H259.157V573.825H218.078ZM259.671 573.825V532.746H300.75V573.825H259.671ZM301.263 573.825V532.746H342.342V573.825H301.263ZM342.856 573.825V532.746H383.935V573.825H342.856ZM384.448 573.825V532.746H425.527V573.825H384.448ZM426.041 573.825V532.746H467.12V573.825H426.041ZM467.633 573.825V532.746H508.712V573.825H467.633ZM509.226 573.825V532.746H550.305V573.825H509.226ZM550.818 573.825V532.746H591.897V573.825H550.818ZM634.003 -8.16849H633.49V608.017H634.003V-8.16849ZM675.082 -8.16849H675.596V608.017H675.082V-8.16849ZM717.188 -8.16849H716.675V608.017H717.188V-8.16849ZM-6.95528 615.931V615.418H609.23V615.931H-6.95528Z" fill="url(#paint1_radial_1258_5508)"/>
<rect width="620.873" height="256.377" rx="128.188" transform="matrix(0.707107 -0.707107 -0.707107 -0.707107 -41.3945 762.901)" fill="url(#paint2_linear_1258_5508)"/>
<rect width="620.873" height="256.377" rx="128.188" transform="matrix(-0.707107 0.707107 0.707107 0.707107 649.646 -271.718)" fill="url(#paint3_linear_1258_5508)"/>
<path d="M361.375 224.919C388.285 271.529 405.491 317.701 411.628 354.598C414.699 373.059 414.97 389.031 412.418 401.511C409.864 413.996 404.574 422.624 396.821 427.1C389.068 431.577 378.951 431.844 366.862 427.813C354.777 423.783 341.081 415.562 326.629 403.673C297.744 379.909 266.36 341.923 239.45 295.313C212.54 248.703 195.335 202.531 189.197 165.634C186.127 147.173 185.855 131.202 188.408 118.721C190.962 106.236 196.251 97.6078 204.004 93.1317C211.757 88.6555 221.874 88.3885 233.963 92.4195C246.048 96.4489 259.744 104.67 274.196 116.56C303.082 140.323 334.465 178.31 361.375 224.919Z" stroke="url(#paint4_linear_1258_5508)" stroke-width="6.12117"/>
<path d="M265.216 199.153C311.826 172.243 357.998 155.038 394.895 148.9C413.356 145.83 429.327 145.558 441.808 148.111C454.293 150.665 462.921 155.954 467.397 163.707C471.873 171.46 472.14 181.577 468.109 193.666C464.08 205.751 455.859 219.447 443.969 233.899C420.205 262.785 382.219 294.168 335.61 321.078C289 347.988 242.828 365.194 205.931 371.331C187.47 374.402 171.498 374.673 159.018 372.12C146.533 369.567 137.905 364.277 133.428 356.524C128.952 348.771 128.685 338.654 132.716 326.565C136.746 314.48 144.967 300.784 156.856 286.332C180.62 257.447 218.606 226.063 265.216 199.153Z" stroke="url(#paint5_linear_1258_5508)" stroke-width="6.12117"/>
<path d="M318.632 192.12C370.618 206.05 415.433 226.532 445.863 248.283C461.088 259.165 472.573 270.267 479.593 280.897C486.616 291.531 488.976 301.372 486.659 310.02C484.342 318.667 477.377 326.009 465.979 331.708C454.584 337.404 439.086 341.275 420.46 343.087C383.231 346.708 334.18 342.039 282.193 328.11C230.207 314.18 185.392 293.697 154.962 271.947C139.737 261.065 128.252 249.963 121.232 239.333C114.209 228.699 111.849 218.857 114.166 210.21C116.483 201.563 123.448 194.22 134.846 188.522C146.241 182.826 161.739 178.955 180.365 177.143C217.593 173.521 266.645 178.19 318.632 192.12Z" stroke="url(#paint6_linear_1258_5508)" stroke-width="6.12117"/>
<path d="M250.508 446.362C241.86 444.045 234.518 437.08 228.82 425.681C223.124 414.286 219.252 398.789 217.441 380.162C213.819 342.934 218.488 293.882 232.418 241.896C246.347 189.909 266.83 145.095 288.58 114.665C299.463 99.4398 310.564 87.954 321.194 80.9341C331.829 73.9115 341.67 71.5509 350.317 73.868C358.964 76.185 366.307 83.1499 372.005 94.5487C377.701 105.943 381.572 121.441 383.384 140.067C387.006 177.296 382.337 226.348 368.407 278.334C354.478 330.32 333.995 375.135 312.245 405.565C301.362 420.79 290.261 432.276 279.63 439.296C268.996 446.318 259.155 448.679 250.508 446.362Z" stroke="url(#paint7_linear_1258_5508)" stroke-width="6.12117"/>
<g filter="url(#filter0_i_1258_5508)">
<g clip-path="url(#clip1_1258_5508)">
<rect x="369.355" y="35.2562" width="59.3568" height="59.3568" rx="29.6784" transform="rotate(60 369.355 35.2562)" fill="white"/>
<g filter="url(#filter1_f_1258_5508)">
<ellipse cx="365.152" cy="68.6087" rx="32.5739" ry="31.975" transform="rotate(60 365.152 68.6087)" fill="#66CCD6"/>
</g>
<g opacity="0.5" filter="url(#filter2_f_1258_5508)">
<ellipse cx="366.806" cy="62.6392" rx="19.9063" ry="19.4323" transform="rotate(60 366.806 62.6392)" fill="#66CCD6"/>
</g>
<g opacity="0.6" filter="url(#filter3_f_1258_5508)">
<ellipse cx="8.4319" cy="5.0453" rx="8.4319" ry="5.0453" transform="matrix(0.654602 0.755974 -0.751054 0.660241 338.861 84.206)" fill="#66CCD6"/>
</g>
</g>
</g>
<g filter="url(#filter4_i_1258_5508)">
<g clip-path="url(#clip2_1258_5508)">
<rect x="261.232" y="422.557" width="35.6141" height="35.6141" rx="17.8071" transform="rotate(60 261.232 422.557)" fill="white"/>
<g filter="url(#filter5_f_1258_5508)">
<ellipse cx="258.711" cy="442.568" rx="19.5443" ry="19.185" transform="rotate(60 258.711 442.568)" fill="#99DDE4"/>
</g>
<g opacity="0.5" filter="url(#filter6_f_1258_5508)">
<ellipse cx="259.702" cy="438.987" rx="11.9438" ry="11.6594" transform="rotate(60 259.702 438.987)" fill="#99DDE4"/>
</g>
<g opacity="0.6" filter="url(#filter7_f_1258_5508)">
<ellipse cx="5.05914" cy="3.02718" rx="5.05914" ry="3.02718" transform="matrix(0.654602 0.755974 -0.751054 0.660241 242.936 451.927)" fill="#99DDE4"/>
</g>
</g>
</g>
<g filter="url(#filter8_i_1258_5508)">
<g clip-path="url(#clip3_1258_5508)">
<rect x="229.146" y="260.138" width="71.2282" height="71.2282" rx="35.6141" transform="rotate(60 229.146 260.138)" fill="white"/>
<g filter="url(#filter9_f_1258_5508)">
<ellipse cx="224.103" cy="300.161" rx="39.0886" ry="38.37" transform="rotate(60 224.103 300.161)" fill="#99DDE4"/>
</g>
<g opacity="0.5" filter="url(#filter10_f_1258_5508)">
<ellipse cx="226.087" cy="292.998" rx="23.8875" ry="23.3188" transform="rotate(60 226.087 292.998)" fill="#99DDE4"/>
</g>
<g opacity="0.6" filter="url(#filter11_f_1258_5508)">
<ellipse cx="10.1183" cy="6.05436" rx="10.1183" ry="6.05436" transform="matrix(0.654602 0.755974 -0.751054 0.660241 192.554 318.878)" fill="#99DDE4"/>
</g>
</g>
</g>
<g filter="url(#filter12_i_1258_5508)">
<g clip-path="url(#clip4_1258_5508)">
<rect x="415.05" y="211.75" width="23.7427" height="23.7427" rx="11.8714" transform="rotate(60 415.05 211.75)" fill="white"/>
<g filter="url(#filter13_f_1258_5508)">
<ellipse cx="413.369" cy="225.091" rx="13.0296" ry="12.79" transform="rotate(60 413.369 225.091)" fill="#99DDE4"/>
</g>
<g opacity="0.5" filter="url(#filter14_f_1258_5508)">
<ellipse cx="414.03" cy="222.704" rx="7.9625" ry="7.77292" transform="rotate(60 414.03 222.704)" fill="#99DDE4"/>
</g>
<g opacity="0.6" filter="url(#filter15_f_1258_5508)">
<ellipse cx="3.37276" cy="2.01812" rx="3.37276" ry="2.01812" transform="matrix(0.654602 0.755974 -0.751054 0.660241 402.853 231.33)" fill="#99DDE4"/>
</g>
</g>
</g>
</g>
<defs>
<filter id="filter0_i_1258_5508" x="317.951" y="35.2562" width="81.0825" height="81.0829" filterUnits="userSpaceOnUse" color-interpolation-filters="sRGB">
<feFlood flood-opacity="0" result="BackgroundImageFix"/>
<feBlend mode="normal" in="SourceGraphic" in2="BackgroundImageFix" result="shape"/>
<feColorMatrix in="SourceAlpha" type="matrix" values="0 0 0 0 0 0 0 0 0 0 0 0 0 0 0 0 0 0 127 0" result="hardAlpha"/>
<feMorphology radius="1.41326" operator="erode" in="SourceAlpha" result="effect1_innerShadow_1258_5508"/>
<feOffset/>
<feGaussianBlur stdDeviation="5.29972"/>
<feComposite in2="hardAlpha" operator="arithmetic" k2="-1" k3="1"/>
<feColorMatrix type="matrix" values="0 0 0 0 0.529412 0 0 0 0 0.505882 0 0 0 0 1 0 0 0 0.29 0"/>
<feBlend mode="normal" in2="shape" result="effect1_innerShadow_1258_5508"/>
</filter>
<filter id="filter1_f_1258_5508" x="311.823" y="14.979" width="106.659" height="107.259" filterUnits="userSpaceOnUse" color-interpolation-filters="sRGB">
<feFlood flood-opacity="0" result="BackgroundImageFix"/>
<feBlend mode="normal" in="SourceGraphic" in2="BackgroundImageFix" result="shape"/>
<feGaussianBlur stdDeviation="10.5994" result="effect1_foregroundBlur_1258_5508"/>
</filter>
<filter id="filter2_f_1258_5508" x="329.585" y="25.1811" width="74.4413" height="74.9161" filterUnits="userSpaceOnUse" color-interpolation-filters="sRGB">
<feFlood flood-opacity="0" result="BackgroundImageFix"/>
<feBlend mode="normal" in="SourceGraphic" in2="BackgroundImageFix" result="shape"/>
<feGaussianBlur stdDeviation="8.83286" result="effect1_foregroundBlur_1258_5508"/>
</filter>
<filter id="filter3_f_1258_5508" x="323.297" y="76.1182" width="34.59" height="35.5863" filterUnits="userSpaceOnUse" color-interpolation-filters="sRGB">
<feFlood flood-opacity="0" result="BackgroundImageFix"/>
<feBlend mode="normal" in="SourceGraphic" in2="BackgroundImageFix" result="shape"/>
<feGaussianBlur stdDeviation="5.29972" result="effect1_foregroundBlur_1258_5508"/>
</filter>
<filter id="filter4_i_1258_5508" x="230.389" y="422.557" width="48.6499" height="48.6498" filterUnits="userSpaceOnUse" color-interpolation-filters="sRGB">
<feFlood flood-opacity="0" result="BackgroundImageFix"/>
<feBlend mode="normal" in="SourceGraphic" in2="BackgroundImageFix" result="shape"/>
<feColorMatrix in="SourceAlpha" type="matrix" values="0 0 0 0 0 0 0 0 0 0 0 0 0 0 0 0 0 0 127 0" result="hardAlpha"/>
<feMorphology radius="0.847955" operator="erode" in="SourceAlpha" result="effect1_innerShadow_1258_5508"/>
<feOffset/>
<feGaussianBlur stdDeviation="3.17983"/>
<feComposite in2="hardAlpha" operator="arithmetic" k2="-1" k3="1"/>
<feColorMatrix type="matrix" values="0 0 0 0 0.529412 0 0 0 0 0.505882 0 0 0 0 1 0 0 0 0.29 0"/>
<feBlend mode="normal" in2="shape" result="effect1_innerShadow_1258_5508"/>
</filter>
<filter id="filter5_f_1258_5508" x="226.713" y="410.391" width="63.9958" height="64.3556" filterUnits="userSpaceOnUse" color-interpolation-filters="sRGB">
<feFlood flood-opacity="0" result="BackgroundImageFix"/>
<feBlend mode="normal" in="SourceGraphic" in2="BackgroundImageFix" result="shape"/>
<feGaussianBlur stdDeviation="6.35966" result="effect1_foregroundBlur_1258_5508"/>
</filter>
<filter id="filter6_f_1258_5508" x="237.37" y="416.512" width="44.6647" height="44.9497" filterUnits="userSpaceOnUse" color-interpolation-filters="sRGB">
<feFlood flood-opacity="0" result="BackgroundImageFix"/>
<feBlend mode="normal" in="SourceGraphic" in2="BackgroundImageFix" result="shape"/>
<feGaussianBlur stdDeviation="5.29972" result="effect1_foregroundBlur_1258_5508"/>
</filter>
<filter id="filter7_f_1258_5508" x="233.596" y="447.074" width="20.7545" height="21.3518" filterUnits="userSpaceOnUse" color-interpolation-filters="sRGB">
<feFlood flood-opacity="0" result="BackgroundImageFix"/>
<feBlend mode="normal" in="SourceGraphic" in2="BackgroundImageFix" result="shape"/>
<feGaussianBlur stdDeviation="3.17983" result="effect1_foregroundBlur_1258_5508"/>
</filter>
<filter id="filter8_i_1258_5508" x="167.46" y="260.138" width="97.2998" height="97.2996" filterUnits="userSpaceOnUse" color-interpolation-filters="sRGB">
<feFlood flood-opacity="0" result="BackgroundImageFix"/>
<feBlend mode="normal" in="SourceGraphic" in2="BackgroundImageFix" result="shape"/>
<feColorMatrix in="SourceAlpha" type="matrix" values="0 0 0 0 0 0 0 0 0 0 0 0 0 0 0 0 0 0 127 0" result="hardAlpha"/>
<feMorphology radius="1.69591" operator="erode" in="SourceAlpha" result="effect1_innerShadow_1258_5508"/>
<feOffset/>
<feGaussianBlur stdDeviation="6.35966"/>
<feComposite in2="hardAlpha" operator="arithmetic" k2="-1" k3="1"/>
<feColorMatrix type="matrix" values="0 0 0 0 0.529412 0 0 0 0 0.505882 0 0 0 0 1 0 0 0 0.29 0"/>
<feBlend mode="normal" in2="shape" result="effect1_innerShadow_1258_5508"/>
</filter>
<filter id="filter9_f_1258_5508" x="160.107" y="235.806" width="127.992" height="128.711" filterUnits="userSpaceOnUse" color-interpolation-filters="sRGB">
<feFlood flood-opacity="0" result="BackgroundImageFix"/>
<feBlend mode="normal" in="SourceGraphic" in2="BackgroundImageFix" result="shape"/>
<feGaussianBlur stdDeviation="12.7193" result="effect1_foregroundBlur_1258_5508"/>
</filter>
<filter id="filter10_f_1258_5508" x="181.422" y="248.048" width="89.3294" height="89.8994" filterUnits="userSpaceOnUse" color-interpolation-filters="sRGB">
<feFlood flood-opacity="0" result="BackgroundImageFix"/>
<feBlend mode="normal" in="SourceGraphic" in2="BackgroundImageFix" result="shape"/>
<feGaussianBlur stdDeviation="10.5994" result="effect1_foregroundBlur_1258_5508"/>
</filter>
<filter id="filter11_f_1258_5508" x="173.876" y="309.173" width="41.5085" height="42.7035" filterUnits="userSpaceOnUse" color-interpolation-filters="sRGB">
<feFlood flood-opacity="0" result="BackgroundImageFix"/>
<feBlend mode="normal" in="SourceGraphic" in2="BackgroundImageFix" result="shape"/>
<feGaussianBlur stdDeviation="6.35966" result="effect1_foregroundBlur_1258_5508"/>
</filter>
<filter id="filter12_i_1258_5508" x="394.488" y="211.75" width="32.4336" height="32.4332" filterUnits="userSpaceOnUse" color-interpolation-filters="sRGB">
<feFlood flood-opacity="0" result="BackgroundImageFix"/>
<feBlend mode="normal" in="SourceGraphic" in2="BackgroundImageFix" result="shape"/>
<feColorMatrix in="SourceAlpha" type="matrix" values="0 0 0 0 0 0 0 0 0 0 0 0 0 0 0 0 0 0 127 0" result="hardAlpha"/>
<feMorphology radius="0.565303" operator="erode" in="SourceAlpha" result="effect1_innerShadow_1258_5508"/>
<feOffset/>
<feGaussianBlur stdDeviation="2.11989"/>
<feComposite in2="hardAlpha" operator="arithmetic" k2="-1" k3="1"/>
<feColorMatrix type="matrix" values="0 0 0 0 0.529412 0 0 0 0 0.505882 0 0 0 0 1 0 0 0 0.29 0"/>
<feBlend mode="normal" in2="shape" result="effect1_innerShadow_1258_5508"/>
</filter>
<filter id="filter13_f_1258_5508" x="392.038" y="203.639" width="42.6637" height="42.9038" filterUnits="userSpaceOnUse" color-interpolation-filters="sRGB">
<feFlood flood-opacity="0" result="BackgroundImageFix"/>
<feBlend mode="normal" in="SourceGraphic" in2="BackgroundImageFix" result="shape"/>
<feGaussianBlur stdDeviation="4.23977" result="effect1_foregroundBlur_1258_5508"/>
</filter>
<filter id="filter14_f_1258_5508" x="399.142" y="207.72" width="29.7766" height="29.9664" filterUnits="userSpaceOnUse" color-interpolation-filters="sRGB">
<feFlood flood-opacity="0" result="BackgroundImageFix"/>
<feBlend mode="normal" in="SourceGraphic" in2="BackgroundImageFix" result="shape"/>
<feGaussianBlur stdDeviation="3.53315" result="effect1_foregroundBlur_1258_5508"/>
</filter>
<filter id="filter15_f_1258_5508" x="396.627" y="228.095" width="13.8365" height="14.2345" filterUnits="userSpaceOnUse" color-interpolation-filters="sRGB">
<feFlood flood-opacity="0" result="BackgroundImageFix"/>
<feBlend mode="normal" in="SourceGraphic" in2="BackgroundImageFix" result="shape"/>
<feGaussianBlur stdDeviation="2.11989" result="effect1_foregroundBlur_1258_5508"/>
</filter>
<linearGradient id="paint0_linear_1258_5508" x1="-83.1005" y1="440.852" x2="642.22" y2="205.939" gradientUnits="userSpaceOnUse">
<stop stop-color="#00AABB"/>
<stop offset="1" stop-color="#08808C"/>
</linearGradient>
<radialGradient id="paint1_radial_1258_5508" cx="0" cy="0" r="1" gradientUnits="userSpaceOnUse" gradientTransform="translate(300.895 262.084) rotate(90) scale(276.513 325.274)">
<stop offset="0.519599" stop-color="white" stop-opacity="0.1"/>
<stop offset="1" stop-color="white" stop-opacity="0"/>
</radialGradient>
<linearGradient id="paint2_linear_1258_5508" x1="27.3041" y1="128.189" x2="509.282" y2="128.189" gradientUnits="userSpaceOnUse">
<stop stop-color="white"/>
<stop offset="1" stop-color="white" stop-opacity="0"/>
</linearGradient>
<linearGradient id="paint3_linear_1258_5508" x1="27.3041" y1="128.189" x2="509.282" y2="128.189" gradientUnits="userSpaceOnUse">
<stop stop-color="white"/>
<stop offset="1" stop-color="white" stop-opacity="0"/>
</linearGradient>
<linearGradient id="paint4_linear_1258_5508" x1="202.474" y1="90.4811" x2="398.352" y2="429.751" gradientUnits="userSpaceOnUse">
<stop stop-color="white"/>
<stop offset="1" stop-color="white" stop-opacity="0"/>
</linearGradient>
<linearGradient id="paint5_linear_1258_5508" x1="130.778" y1="358.054" x2="470.048" y2="162.177" gradientUnits="userSpaceOnUse">
<stop stop-color="white"/>
<stop offset="1" stop-color="white" stop-opacity="0"/>
</linearGradient>
<linearGradient id="paint6_linear_1258_5508" x1="111.209" y1="209.418" x2="489.616" y2="310.812" gradientUnits="userSpaceOnUse">
<stop stop-color="white"/>
<stop offset="1" stop-color="white" stop-opacity="0"/>
</linearGradient>
<linearGradient id="paint7_linear_1258_5508" x1="351.11" y1="70.9115" x2="249.716" y2="449.318" gradientUnits="userSpaceOnUse">
<stop stop-color="white"/>
<stop offset="1" stop-color="white" stop-opacity="0"/>
</linearGradient>
<clipPath id="clip0_1258_5508">
<rect x="0.5" y="0.13623" width="600" height="520" rx="30" fill="white"/>
</clipPath>
<clipPath id="clip1_1258_5508">
<rect x="369.355" y="35.2562" width="59.3568" height="59.3568" rx="29.6784" transform="rotate(60 369.355 35.2562)" fill="white"/>
</clipPath>
<clipPath id="clip2_1258_5508">
<rect x="261.232" y="422.557" width="35.6141" height="35.6141" rx="17.8071" transform="rotate(60 261.232 422.557)" fill="white"/>
</clipPath>
<clipPath id="clip3_1258_5508">
<rect x="229.146" y="260.138" width="71.2282" height="71.2282" rx="35.6141" transform="rotate(60 229.146 260.138)" fill="white"/>
</clipPath>
<clipPath id="clip4_1258_5508">
<rect x="415.05" y="211.75" width="23.7427" height="23.7427" rx="11.8714" transform="rotate(60 415.05 211.75)" fill="white"/>
</clipPath>
</defs>
</svg>
