<svg width="117" height="80" viewBox="0 0 117 80" fill="none" xmlns="http://www.w3.org/2000/svg">
<g clip-path="url(#clip0_1190_10)">
<path d="M1.74815 30.2828C1.74815 29.1783 2.64358 28.2828 3.74815 28.2828H17.9736C19.0782 28.2828 19.9736 29.1783 19.9736 30.2828V80H1.74815V30.2828Z" fill="#EAECFE"/>
<rect width="17.9965" height="3.23232" transform="matrix(1 0 0 -1 1.74815 31.5151)" fill="#1152A2"/>
</g>
<g clip-path="url(#clip1_1190_10)">
<path d="M22.3979 12.5051C22.3979 11.4005 23.2933 10.5051 24.3979 10.5051H37.8152C38.9198 10.5051 39.8152 11.4005 39.8152 12.5051V80H22.3979V12.5051Z" fill="#EAECFE"/>
<rect width="17.9965" height="3.23232" transform="matrix(1 0 0 -1 22.3979 13.7374)" fill="#1152A2"/>
</g>
<g clip-path="url(#clip2_1190_10)">
<path d="M42.2395 2C42.2395 0.895429 43.1349 0 44.2395 0H57.2528C58.3574 0 59.2528 0.895431 59.2528 2V80H42.2395V2Z" fill="#EAECFE"/>
<rect width="17.9965" height="3.23232" transform="matrix(1 0 0 -1 42.2395 3.2323)" fill="#1152A2"/>
</g>
<g clip-path="url(#clip3_1190_10)">
<path d="M61.677 17.3535C61.677 16.2489 62.5725 15.3535 63.677 15.3535H76.421C77.5256 15.3535 78.421 16.2489 78.421 17.3535V80H61.677V17.3535Z" fill="#EAECFE"/>
<rect width="17.9965" height="3.23232" transform="matrix(1 0 0 -1 61.677 18.5858)" fill="#1152A2"/>
</g>
<g clip-path="url(#clip4_1190_10)">
<path d="M80.8453 2C80.8453 0.895429 81.7407 0 82.8453 0H95.3872C96.4918 0 97.3872 0.895431 97.3872 2V80H80.8453V2Z" fill="#EAECFE"/>
<rect width="17.9965" height="3.23232" transform="matrix(1 0 0 -1 80.8453 3.2323)" fill="#1152A2"/>
</g>
<g clip-path="url(#clip5_1190_10)">
<path d="M99.8115 12.5051C99.8115 11.4005 100.707 10.5051 101.811 10.5051H114.192C115.296 10.5051 116.192 11.4005 116.192 12.5051V80H99.8115V12.5051Z" fill="#EAECFE"/>
<rect width="17.9965" height="3.23232" transform="matrix(1 0 0 -1 99.8115 13.7374)" fill="#1152A2"/>
</g>
<defs>
<clipPath id="clip0_1190_10">
<path d="M1.74815 30.2828C1.74815 29.1783 2.64358 28.2828 3.74815 28.2828H17.9736C19.0782 28.2828 19.9736 29.1783 19.9736 30.2828V80H1.74815V30.2828Z" fill="white"/>
</clipPath>
<clipPath id="clip1_1190_10">
<path d="M22.3979 12.5051C22.3979 11.4005 23.2933 10.5051 24.3979 10.5051H37.8152C38.9198 10.5051 39.8152 11.4005 39.8152 12.5051V80H22.3979V12.5051Z" fill="white"/>
</clipPath>
<clipPath id="clip2_1190_10">
<path d="M42.2395 2C42.2395 0.895429 43.1349 0 44.2395 0H57.2528C58.3574 0 59.2528 0.895431 59.2528 2V80H42.2395V2Z" fill="white"/>
</clipPath>
<clipPath id="clip3_1190_10">
<path d="M61.677 17.3535C61.677 16.2489 62.5725 15.3535 63.677 15.3535H76.421C77.5256 15.3535 78.421 16.2489 78.421 17.3535V80H61.677V17.3535Z" fill="white"/>
</clipPath>
<clipPath id="clip4_1190_10">
<path d="M80.8453 2C80.8453 0.895429 81.7407 0 82.8453 0H95.3872C96.4918 0 97.3872 0.895431 97.3872 2V80H80.8453V2Z" fill="white"/>
</clipPath>
<clipPath id="clip5_1190_10">
<path d="M99.8115 12.5051C99.8115 11.4005 100.707 10.5051 101.811 10.5051H114.192C115.296 10.5051 116.192 11.4005 116.192 12.5051V80H99.8115V12.5051Z" fill="white"/>
</clipPath>
</defs>
</svg>
