<svg width="56" height="54" viewBox="0 0 56 54" fill="none" xmlns="http://www.w3.org/2000/svg">
<path d="M20.4072 9.76467L27.1729 2.99902" stroke="black" stroke-width="2.5" stroke-linecap="round"/>
<path d="M8.05127 34.1216L18.2842 23.8887" stroke="url(#paint0_linear_1280_7900)" stroke-width="2.5" stroke-linecap="round"/>
<path d="M16.3018 37.8486L31.415 22.7354" stroke="black" stroke-width="2.5" stroke-linecap="round"/>
<path d="M2.5 51.444L12.486 41.458" stroke="black" stroke-width="2.5" stroke-linecap="round"/>
<path d="M13.9321 51.444L23.1535 42.2227" stroke="url(#paint1_linear_1280_7900)" stroke-width="2.5" stroke-linecap="round"/>
<path d="M25.9717 51.3772L33.2141 44.1348" stroke="black" stroke-width="2.5" stroke-linecap="round"/>
<path d="M43.2573 34.1207L50.1994 27.1787" stroke="black" stroke-width="2.5" stroke-linecap="round"/>
<path d="M26.6411 38.8223L34.9009 30.5625" stroke="black" stroke-width="2.5" stroke-linecap="round"/>
<path d="M2.81152 27.2705L4.0293 26.0527" stroke="black" stroke-width="2.5" stroke-linecap="round"/>
<path d="M7.32764 22.7546L9.57735 20.5049" stroke="black" stroke-width="2.5" stroke-linecap="round"/>
<path d="M21.0474 21.1232L24.9147 17.2559" stroke="black" stroke-width="2.5" stroke-linecap="round"/>
<path d="M2.5 39.378L4.0294 37.8486" stroke="black" stroke-width="2.5" stroke-linecap="round"/>
<path d="M38.626 3.45572C38.7516 3.12076 39.178 3.02221 39.4378 3.26812L44.043 7.62678C44.1302 7.70938 44.2444 7.75779 44.3644 7.76315L50.6989 8.04557C51.0562 8.0615 51.2817 8.43665 51.1282 8.75974L48.4059 14.4864C48.3543 14.5949 48.3435 14.7184 48.3755 14.8342L50.0644 20.9459C50.1597 21.2907 49.8726 21.6211 49.5178 21.5749L43.2302 20.7555C43.1111 20.7399 42.9903 20.7679 42.89 20.8341L37.5994 24.3289C37.3009 24.5261 36.8979 24.3551 36.8323 24.0035L35.6686 17.7704C35.6466 17.6523 35.5827 17.546 35.4887 17.4712L30.53 13.5194C30.2503 13.2964 30.2883 12.8604 30.6025 12.6893L36.1709 9.65643C36.2764 9.59895 36.3577 9.50539 36.3999 9.39287L38.626 3.45572Z" stroke="black" stroke-width="2.5" stroke-linecap="round"/>
<path d="M14.1975 9.65007C14.3725 9.26969 14.9095 9.26002 15.0981 9.63385L16.7147 12.8385C16.7657 12.9395 16.8494 13.0202 16.9522 13.0675L20.2129 14.5677C20.5933 14.7427 20.603 15.2798 20.2292 15.4684L17.0245 17.085C16.9235 17.1359 16.8428 17.2196 16.7955 17.3224L15.2953 20.5832C15.1203 20.9636 14.5832 20.9732 14.3947 20.5994L12.778 17.3948C12.7271 17.2937 12.6434 17.213 12.5406 17.1657L9.27984 15.6655C8.89946 15.4905 8.88979 14.9535 9.26362 14.7649L12.4683 13.1483C12.5693 13.0973 12.65 13.0136 12.6973 12.9108L14.1975 9.65007Z" stroke="url(#paint2_linear_1280_7900)" stroke-width="2" stroke-linecap="round"/>
<path d="M37.3898 33.9118C37.5649 33.5314 38.1019 33.5217 38.2905 33.8956L39.9071 37.1002C39.9581 37.2012 40.0418 37.282 40.1445 37.3292L43.4053 38.8294C43.7857 39.0044 43.7954 39.5415 43.4215 39.7301L40.2169 41.3467C40.1159 41.3976 40.0352 41.4813 39.9879 41.5841L38.4877 44.8449C38.3127 45.2253 37.7756 45.2349 37.587 44.8611L35.9704 41.6565C35.9195 41.5555 35.8358 41.4747 35.733 41.4274L32.4722 39.9273C32.0918 39.7523 32.0822 39.2152 32.456 39.0266L35.6606 37.41C35.7616 37.359 35.8424 37.2753 35.8897 37.1726L37.3898 33.9118Z" stroke="url(#paint3_linear_1280_7900)" stroke-width="2" stroke-linecap="round"/>
<defs>
<linearGradient id="paint0_linear_1280_7900" x1="6.62547" y1="32.5614" x2="19.2951" y2="29.0052" gradientUnits="userSpaceOnUse">
<stop stop-color="#00AABB"/>
<stop offset="1" stop-color="#08808C"/>
</linearGradient>
<linearGradient id="paint1_linear_1280_7900" x1="12.6473" y1="50.038" x2="24.0644" y2="46.8333" gradientUnits="userSpaceOnUse">
<stop stop-color="#00AABB"/>
<stop offset="1" stop-color="#08808C"/>
</linearGradient>
<linearGradient id="paint2_linear_1280_7900" x1="6.63188" y1="19.7187" x2="22.4214" y2="14.9784" gradientUnits="userSpaceOnUse">
<stop stop-color="#00AABB"/>
<stop offset="1" stop-color="#08808C"/>
</linearGradient>
<linearGradient id="paint3_linear_1280_7900" x1="29.8243" y1="43.9804" x2="45.6138" y2="39.2401" gradientUnits="userSpaceOnUse">
<stop stop-color="#00AABB"/>
<stop offset="1" stop-color="#08808C"/>
</linearGradient>
</defs>
</svg>
