<svg width="24" height="24" viewBox="0 0 24 24" fill="none" xmlns="http://www.w3.org/2000/svg">
<path d="M21.8055 10.0405L21 10.0405L21 9.99903L12 9.99902L12 13.999L17.6515 13.999C16.827 16.3275 14.6115 17.999 12 17.999C8.6865 17.999 6 15.3125 6 11.999C6 8.68552 8.6865 5.99902 12 5.99902C13.5295 5.99902 14.921 6.57602 15.9805 7.51852L18.809 4.69002C17.023 3.02552 14.634 1.99902 12 1.99902C6.4775 1.99902 2 6.47652 2 11.999C2 17.5215 6.4775 21.999 12 21.999C17.5225 21.999 22 17.5215 22 11.999C22 11.3285 21.931 10.674 21.8055 10.0405Z" fill="#FBC02D"/>
<path d="M3.15332 7.34452L6.43882 9.75402C7.32782 7.55302 9.48082 5.99902 12.0003 5.99902C13.5298 5.99902 14.9213 6.57602 15.9808 7.51852L18.8093 4.69002C17.0233 3.02552 14.6343 1.99902 12.0003 1.99902C8.15932 1.99902 4.82832 4.16752 3.15332 7.34452Z" fill="#E53935"/>
<path d="M12.0002 21.9994C14.5832 21.9994 16.9302 21.0109 18.7047 19.4034L15.6097 16.7844C14.6057 17.5449 13.3577 17.9994 12.0002 17.9994C9.39916 17.9994 7.19066 16.3409 6.35866 14.0264L3.09766 16.5389C4.75266 19.7774 8.11366 21.9994 12.0002 21.9994Z" fill="#4CAF50"/>
<path d="M21.8055 10.0405L21.7975 9.99902L21 9.99902L12 9.99902L12 13.999L17.6515 13.999C17.2555 15.1175 16.536 16.082 15.608 16.7845C15.6085 16.784 15.609 16.784 15.6095 16.7835L18.7045 19.4025C18.4855 19.6015 22 16.999 22 11.999C22 11.3285 21.931 10.674 21.8055 10.0405Z" fill="url(#paint0_linear_891_3627)"/>
<defs>
<linearGradient id="paint0_linear_891_3627" x1="10.6067" y1="17.9778" x2="22.8729" y2="14.3205" gradientUnits="userSpaceOnUse">
<stop stop-color="#00AABB"/>
<stop offset="1" stop-color="#08808C"/>
</linearGradient>
</defs>
</svg>
