<svg width="112" height="46" viewBox="0 0 112 46" fill="none" xmlns="http://www.w3.org/2000/svg">
<g clip-path="url(#clip0_1429_12847)">
<path d="M17.5603 0V13.4282H7.62402V13.4117L17.5603 0Z" fill="white"/>
<path d="M17.515 26.3826L13.7349 31.4887L11.0953 35.0465L7.62402 39.7367V26.3826H17.515Z" fill="white"/>
<path d="M40.3196 38.2422C39.6273 39.2648 38.6946 40.1019 37.6033 40.6798C36.5119 41.2578 35.2954 41.559 34.0605 41.557H9.60889L14.435 35.0468H34.0605C34.4678 35.0475 34.863 34.9086 35.1802 34.653C35.4973 34.3974 35.7171 34.0408 35.8029 33.6426C35.8887 33.2445 35.8353 32.8289 35.6516 32.4654C35.4678 32.1019 35.1649 31.8125 34.7935 31.6454C34.7387 31.6186 34.6823 31.5952 34.6247 31.5754C35.8559 31.8431 38.8207 33.0414 40.3196 38.2422Z" fill="white"/>
<path d="M49.2635 22.9028L48.1928 24.3523V41.5566H42.1026C43.7881 39.7766 44.8327 37.486 45.0715 35.0463C45.1045 34.688 45.121 34.3298 45.121 33.9674C45.1206 33.1357 45.0252 32.3068 44.8368 31.4967C44.7751 31.2414 44.7092 30.9902 44.635 30.7432C44.1406 29.1164 43.2735 27.6275 42.1026 26.3947C41.9585 26.2341 41.802 26.0818 41.6455 25.9335V22.9152L49.2635 22.9028Z" fill="white"/>
<path d="M42.7825 16.4917L41.6418 18.0235L37.9358 23.0308H23.4287L28.2754 16.4917H42.7825Z" fill="white"/>
<path d="M24.9393 16.4915L20.0926 23.0306H0.5L5.34668 16.4915H24.9393Z" fill="white"/>
<path d="M62.6333 16.3682L57.7866 22.9073H41.6406V22.4049L46.1167 16.3682H62.6333Z" fill="white"/>
<path d="M49.2626 22.9028L48.1919 24.3523V30.7514H44.6424C44.148 29.1247 43.2808 27.6357 42.1099 26.403C41.9658 26.2424 41.8093 26.09 41.6528 25.9418V22.9234L49.2626 22.9028Z" fill="url(#paint0_linear_1429_12847)"/>
<path d="M41.6453 33.9676C41.6444 34.3286 41.6182 34.6891 41.567 35.0465C41.4618 35.8042 41.2381 36.5407 40.9041 37.2289C40.7418 37.5793 40.5503 37.9154 40.3317 38.2337C38.8328 33.0329 35.868 31.8346 34.6367 31.5669L34.4844 31.5258C34.3883 31.5037 34.2905 31.4899 34.192 31.4846H34.0726H17.0742L17.5642 30.8175L20.8585 26.3826H34.0685C34.4823 26.3816 34.8954 26.4147 35.3038 26.4814C36.2329 26.6302 37.1247 26.9559 37.931 27.4409C39.0683 28.1086 40.0112 29.0623 40.6656 30.2074C41.3202 31.3524 41.6636 32.6487 41.6617 33.9676H41.6453Z" fill="white"/>
<path d="M40.3195 38.2422C39.6273 39.2648 38.6945 40.1019 37.6032 40.6798C36.5119 41.2578 35.2954 41.559 34.0605 41.557H30.1279C30.3585 39.9923 30.9886 36.1627 31.1739 35.0468H34.0563C34.4636 35.0475 34.8589 34.9086 35.176 34.653C35.4931 34.3974 35.7129 34.0408 35.7987 33.6426C35.8845 33.2445 35.8311 32.8289 35.6474 32.4654C35.4637 32.1019 35.1608 31.8125 34.7893 31.6454C34.7345 31.6186 34.6782 31.5952 34.6205 31.5754C35.8558 31.8431 38.8207 33.0414 40.3195 38.2422Z" fill="url(#paint1_linear_1429_12847)"/>
<path d="M13.7349 31.489L11.0953 35.0468L7.62402 39.737V31.489H13.7349Z" fill="url(#paint2_linear_1429_12847)"/>
<path d="M53.8627 26.4114H51.2231V41.5773H53.8627V26.4114Z" fill="white"/>
<path d="M62.0283 38.1188L61.7689 38.4524C61.5326 38.7605 61.2407 39.0217 60.9083 39.2224C60.5537 39.4146 60.1542 39.5084 59.7512 39.4942C59.4562 39.5035 59.1627 39.4478 58.8916 39.3311C58.6205 39.2144 58.3783 39.0395 58.1823 38.8188C57.8279 38.4186 57.6076 37.9175 57.5523 37.3858H63.5684V36.3317C63.5684 34.8122 63.2101 33.618 62.506 32.778C62.1328 32.3466 61.6664 32.0056 61.1421 31.7809C60.6178 31.5562 60.0492 31.4536 59.4794 31.4809C58.695 31.4795 57.9275 31.7086 57.2722 32.1397C56.5936 32.5843 56.0518 33.2087 55.7075 33.9433C55.3306 34.7409 55.1419 35.6144 55.1557 36.4964V36.7764C55.0987 38.0565 55.5502 39.3073 56.4116 40.2559C56.8314 40.6925 57.3384 41.0358 57.8995 41.2635C58.4607 41.4913 59.0635 41.5983 59.6688 41.5778C60.4006 41.6145 61.1292 41.4567 61.7801 41.1203C62.4311 40.784 62.9814 40.2811 63.3749 39.663L63.5849 39.3418L62.0283 38.1188ZM57.6387 35.2816C57.7265 34.844 57.9266 34.4367 58.2193 34.0998C58.3746 33.9266 58.5652 33.7888 58.7783 33.6957C58.9915 33.6027 59.2221 33.5565 59.4547 33.5604C59.6796 33.5483 59.9044 33.5868 60.1124 33.673C60.3205 33.7592 60.5066 33.891 60.6571 34.0586C60.9388 34.413 61.1093 34.8429 61.1471 35.294L57.6387 35.2816Z" fill="white"/>
<path d="M73.0345 40.6964C72.8244 40.1235 72.7292 39.5149 72.7544 38.9052V34.7874C72.7629 34.3309 72.6735 33.878 72.4924 33.4589C72.3113 33.0399 72.0426 32.6645 71.7044 32.3578C70.9462 31.7422 69.9866 31.4297 69.0113 31.4807C68.3364 31.4793 67.6686 31.6196 67.0513 31.8925C66.4825 32.1375 65.9841 32.5212 65.6018 33.0085C65.249 33.4468 65.052 33.9901 65.0418 34.5526V34.9644H67.4177V34.5526C67.4194 34.4186 67.4555 34.2872 67.5226 34.1711C67.5896 34.055 67.6854 33.9581 67.8007 33.8897C68.1279 33.6601 68.5214 33.5444 68.9207 33.5603C69.3248 33.5272 69.7256 33.6544 70.0367 33.9144C70.1593 34.0442 70.254 34.1978 70.3149 34.3656C70.3759 34.5335 70.4017 34.7121 70.3908 34.8903V35.1744H69.3243C67.9572 35.1744 66.8536 35.4627 66.0959 36.0268C65.6978 36.3083 65.3764 36.6847 65.1606 37.1219C64.9449 37.5591 64.8418 38.0433 64.8606 38.5305C64.8519 38.9485 64.9361 39.3633 65.107 39.745C65.2779 40.1266 65.5312 40.4656 65.8489 40.7376C66.5281 41.3162 67.399 41.6203 68.2907 41.59C69.103 41.6001 69.8965 41.3457 70.5514 40.8653C70.5821 40.9787 70.6234 41.089 70.6749 41.1947L70.7902 41.4253H73.0674V40.787L73.0345 40.6964ZM70.3908 37.081V38.3904C70.2198 38.6883 69.9687 38.9323 69.6661 39.0946C69.3192 39.3031 68.9219 39.4127 68.5172 39.4117C68.1709 39.4306 67.8297 39.3222 67.5577 39.107C67.4404 39.0063 67.3489 38.879 67.2909 38.7357C67.2328 38.5924 67.21 38.4373 67.2242 38.2834C67.2242 37.9828 67.2242 37.048 69.6126 37.048L70.3908 37.081Z" fill="white"/>
<path d="M79.3528 31.6451C79.0773 31.5227 78.7769 31.4662 78.4757 31.4804C77.8403 31.465 77.2181 31.6637 76.7092 32.0446V31.6328H74.3579V41.5608H76.7627V34.7994C76.8992 34.4845 77.1325 34.2214 77.4286 34.0481C77.7248 33.8749 78.0685 33.8005 78.4098 33.8358C78.6429 33.8336 78.8758 33.8515 79.1058 33.8893L79.5999 33.9717V31.7604L79.3528 31.6451Z" fill="white"/>
<path d="M85.5291 31.481C84.6871 31.4641 83.8642 31.7326 83.1942 32.2428L83.1695 31.6498H80.8677V41.5779H83.2725V34.7876C83.4377 34.4593 83.6809 34.1765 83.9807 33.964C84.2965 33.7434 84.6745 33.6294 85.0596 33.6387C85.25 33.6197 85.4424 33.6394 85.625 33.6967C85.8076 33.754 85.9767 33.8478 86.122 33.9723C86.3692 34.3067 86.4876 34.7189 86.4556 35.1335V41.5655H88.8604V35.15C88.8357 32.1192 87.0362 31.481 85.5291 31.481Z" fill="white"/>
<path d="M92.575 31.4971H90.1372V41.5693H92.575V31.4971Z" fill="white"/>
<path d="M98.4832 31.481C97.6476 31.4636 96.8306 31.7292 96.1649 32.2346L96.1402 31.6499H93.8589V41.4956H96.2431V34.7588C96.4056 34.4312 96.646 34.1484 96.9431 33.9353C97.2578 33.7159 97.6345 33.6033 98.0179 33.6141C98.2061 33.5957 98.396 33.6154 98.5764 33.672C98.7568 33.7286 98.924 33.8209 99.0679 33.9435C99.3144 34.2749 99.4316 34.6849 99.3974 35.0965V41.475H101.782V35.1212C101.761 32.1152 99.9739 31.481 98.4832 31.481Z" fill="white"/>
<path d="M109.284 31.6492L109.247 32.1434C108.6 31.6894 107.822 31.4568 107.032 31.4804C106.471 31.4663 105.914 31.5863 105.408 31.8305C104.903 32.0748 104.463 32.4361 104.125 32.8846C103.375 33.9316 103 35.2012 103.062 36.4877C103.062 38.0401 103.421 39.2919 104.129 40.1937C104.457 40.6483 104.891 41.0165 105.393 41.2668C105.895 41.5171 106.45 41.642 107.011 41.6308C107.749 41.6497 108.475 41.4537 109.103 41.0667C109.113 41.5582 108.933 42.0347 108.601 42.3967C108.407 42.5758 108.178 42.7131 107.929 42.8002C107.679 42.8873 107.415 42.9224 107.151 42.9032C106.744 42.9033 106.343 42.8071 105.98 42.6224C105.617 42.4378 105.303 42.17 105.064 41.8408L104.746 41.4291L103.408 42.9774L103.589 43.245C103.991 43.815 104.544 44.2603 105.187 44.5298C105.834 44.8237 106.535 44.9781 107.246 44.9827C107.807 45.0076 108.367 44.921 108.894 44.7281C109.422 44.5351 109.905 44.2396 110.318 43.8586C110.711 43.4571 111.017 42.979 111.217 42.454C111.416 41.929 111.506 41.3684 111.479 40.8073V31.6492H109.284ZM109.111 38.493C108.955 38.8098 108.71 39.0738 108.406 39.2524C108.101 39.431 107.751 39.5163 107.398 39.4978C107.125 39.5107 106.853 39.454 106.607 39.333C106.361 39.212 106.151 39.0307 105.994 38.806C105.597 38.1651 105.407 37.4174 105.451 36.6647C105.451 35.6188 105.636 34.8323 106.002 34.3258C106.161 34.1011 106.373 33.9197 106.62 33.7981C106.867 33.6766 107.14 33.6187 107.415 33.6299C107.761 33.618 108.103 33.7031 108.402 33.8756C108.702 34.0481 108.948 34.301 109.111 34.6058V38.493Z" fill="white"/>
<path d="M91.3561 29.8706C92.0293 29.8706 92.575 29.3249 92.575 28.6517C92.575 27.9786 92.0293 27.4329 91.3561 27.4329C90.6829 27.4329 90.1372 27.9786 90.1372 28.6517C90.1372 29.3249 90.6829 29.8706 91.3561 29.8706Z" fill="white"/>
</g>
<defs>
<linearGradient id="paint0_linear_1429_12847" x1="45.4495" y1="30.7308" x2="45.4495" y2="22.9028" gradientUnits="userSpaceOnUse">
<stop stop-color="#0273B2" stop-opacity="0"/>
<stop offset="1" stop-color="#293A83"/>
</linearGradient>
<linearGradient id="paint1_linear_1429_12847" x1="38.7095" y1="33.8032" x2="33.1792" y2="39.2222" gradientUnits="userSpaceOnUse">
<stop stop-color="#293A83"/>
<stop offset="1" stop-color="#0273B2" stop-opacity="0"/>
</linearGradient>
<linearGradient id="paint2_linear_1429_12847" x1="10.6794" y1="31.1761" x2="10.6794" y2="36.9122" gradientUnits="userSpaceOnUse">
<stop stop-color="#293A83"/>
<stop offset="0.11" stop-color="#23438A" stop-opacity="0.85"/>
<stop offset="0.4" stop-color="#15579B" stop-opacity="0.48"/>
<stop offset="0.65" stop-color="#0B66A8" stop-opacity="0.22"/>
<stop offset="0.86" stop-color="#0470AF" stop-opacity="0.06"/>
<stop offset="1" stop-color="#0273B2" stop-opacity="0"/>
</linearGradient>
<clipPath id="clip0_1429_12847">
<rect width="111" height="45.0201" fill="white" transform="translate(0.5)"/>
</clipPath>
</defs>
</svg>
