<svg width="24" height="24" viewBox="0 0 24 24" fill="none" xmlns="http://www.w3.org/2000/svg">
<path fill-rule="evenodd" clip-rule="evenodd" d="M14.5357 3.80763C15.7073 2.63606 17.6067 2.63606 18.7783 3.80763L20.1925 5.22185C21.3641 6.39342 21.3641 8.29292 20.1925 9.46449L9.80003 19.857C9.66043 19.9966 9.48263 20.0918 9.28904 20.1305L3.98573 21.1911C3.28601 21.3311 2.66909 20.7142 2.80904 20.0144L3.8697 14.7111C3.90842 14.5175 4.00357 14.3397 4.14317 14.2001L14.5357 3.80763ZM17.3641 5.22185L18.7783 6.63606C19.1688 7.02659 19.1688 7.65975 18.7783 8.05028L17.3641 9.46449L14.5357 6.63607L15.9499 5.22185C16.3404 4.83132 16.9736 4.83132 17.3641 5.22185ZM13.1215 8.05028L5.77148 15.4003L5.06437 18.9358L8.59991 18.2287L15.9499 10.8787L13.1215 8.05028Z" fill="#9D9DA1"/>
</svg>
