<svg width="40" height="40" viewBox="0 0 40 40" fill="none" xmlns="http://www.w3.org/2000/svg">
<g id="Location">
<path id="Vector" d="M20.0003 17.9998C20.6596 17.9998 21.3041 17.8043 21.8522 17.4381C22.4004 17.0718 22.8276 16.5512 23.0799 15.9421C23.3322 15.333 23.3982 14.6628 23.2696 14.0162C23.141 13.3696 22.8235 12.7756 22.3573 12.3095C21.8912 11.8433 21.2972 11.5258 20.6506 11.3972C20.004 11.2686 19.3338 11.3346 18.7247 11.5869C18.1156 11.8392 17.595 12.2664 17.2288 12.8146C16.8625 13.3628 16.667 14.0072 16.667 14.6665C16.667 15.5505 17.0182 16.3984 17.6433 17.0235C18.2684 17.6486 19.1163 17.9998 20.0003 17.9998ZM18.817 29.5165C18.9719 29.6727 19.1563 29.7967 19.3594 29.8813C19.5625 29.9659 19.7803 30.0095 20.0003 30.0095C20.2203 30.0095 20.4382 29.9659 20.6413 29.8813C20.8444 29.7967 21.0287 29.6727 21.1837 29.5165L28.0003 22.6832C29.5836 21.1007 30.662 19.0843 31.0991 16.8889C31.5363 14.6935 31.3125 12.4178 30.4561 10.3496C29.5998 8.28144 28.1493 6.51367 26.2881 5.26992C24.427 4.02617 22.2388 3.3623 20.0003 3.3623C17.7618 3.3623 15.5737 4.02617 13.7125 5.26992C11.8514 6.51367 10.4009 8.28144 9.54452 10.3496C8.68817 12.4178 8.4644 14.6935 8.90154 16.8889C9.33867 19.0843 10.4171 21.1007 12.0003 22.6832L18.817 29.5165ZM12.0503 13.8998C12.1642 12.7115 12.542 11.5636 13.1562 10.54C13.7704 9.51638 14.6054 8.64283 15.6003 7.98315C16.9073 7.12498 18.4368 6.66775 20.0003 6.66775C21.5639 6.66775 23.0933 7.12498 24.4003 7.98315C25.3886 8.64057 26.2189 9.50882 26.8315 10.5255C27.4442 11.5421 27.8239 12.6819 27.9434 13.8628C28.063 15.0437 27.9193 16.2365 27.5228 17.3552C27.1263 18.474 26.4868 19.491 25.6503 20.3332L20.0003 25.9832L14.3503 20.3332C13.5129 19.4992 12.8719 18.489 12.474 17.3762C12.0761 16.2633 11.9314 15.0757 12.0503 13.8998ZM31.667 33.3332H8.33366C7.89163 33.3332 7.46771 33.5087 7.15515 33.8213C6.84259 34.1339 6.66699 34.5578 6.66699 34.9998C6.66699 35.4418 6.84259 35.8658 7.15515 36.1783C7.46771 36.4909 7.89163 36.6665 8.33366 36.6665H31.667C32.109 36.6665 32.5329 36.4909 32.8455 36.1783C33.1581 35.8658 33.3337 35.4418 33.3337 34.9998C33.3337 34.5578 33.1581 34.1339 32.8455 33.8213C32.5329 33.5087 32.109 33.3332 31.667 33.3332Z" fill="#99DDE4"/>
</g>
</svg>
