<svg width="189" height="200" viewBox="0 0 189 200" fill="none" xmlns="http://www.w3.org/2000/svg">
<path d="M56.5856 152.381C64.0113 152.381 70.1135 158.047 70.8056 165.291L70.8713 166.666V185.714C70.8713 193.604 64.4756 200 56.5856 200C49.1599 200 43.0575 194.334 42.3652 187.09L42.2999 185.714V166.666C42.2999 158.777 48.6958 152.381 56.5856 152.381ZM135.106 79.8143C140.336 74.5836 148.613 74.2571 154.223 78.8336L155.308 79.8143L172.127 96.6321C194.442 118.948 194.442 155.129 172.127 177.445C150.383 199.188 115.477 199.745 93.0577 179.117L91.3142 177.445L74.4963 160.626C68.9177 155.048 68.9177 146.002 74.4963 140.423C79.727 135.193 88.0042 134.866 93.6142 139.442L94.6992 140.423L111.517 157.241C122.676 168.399 140.766 168.399 151.924 157.241C162.636 146.53 163.064 129.429 153.209 118.206L151.924 116.835L135.106 100.017C129.527 94.4379 129.527 85.3936 135.106 79.8143ZM28.0142 133.334C35.9039 133.334 42.2999 139.729 42.2999 147.619C42.2999 155.044 36.6343 161.147 29.3899 161.839L28.0142 161.905H18.4904C10.6005 161.905 4.20466 155.509 4.20466 147.619C4.20466 140.194 9.87023 134.091 17.1145 133.399L18.4904 133.334H28.0142ZM64.3756 69.695C69.6063 64.4643 77.8827 64.1379 83.4942 68.7143L84.5792 69.695L124.985 110.101C130.564 115.68 130.564 124.725 124.985 130.304C119.755 135.534 111.478 135.861 105.867 131.284L104.782 130.304L64.3756 89.8979C58.797 84.3193 58.797 75.2736 64.3756 69.695ZM17.2367 22.5543C38.9802 0.810785 73.887 0.253214 96.3056 20.8817L98.0484 22.5543L114.903 39.4079C120.481 44.9869 120.481 54.0321 114.903 59.6107C109.673 64.8414 101.396 65.1679 95.7842 60.5914L94.6992 59.6107L77.8456 42.7574C66.6877 31.5995 48.5977 31.5995 37.4398 42.7574C26.7283 53.4689 26.2998 70.5693 36.1544 81.7921L37.4398 83.1636L54.2934 100.017C59.872 105.596 59.872 114.641 54.2934 120.22C49.0632 125.451 40.7864 125.777 35.1754 121.201L34.0904 120.22L17.2367 103.366C-5.07891 81.0507 -5.07891 44.8699 17.2367 22.5543ZM170.871 38.0952C178.761 38.0952 185.157 44.4911 185.157 52.3809C185.157 60.2707 178.761 66.6664 170.871 66.6664H161.348C153.457 66.6664 147.062 60.2707 147.062 52.3809C147.062 44.4911 153.457 38.0952 161.348 38.0952H170.871ZM132.776 0C140.202 0 146.304 5.66557 146.997 12.9099L147.062 14.2857V33.3334C147.062 41.2231 140.666 47.6191 132.776 47.6191C125.35 47.6191 119.248 41.9535 118.556 34.7091L118.491 33.3334V14.2857C118.491 6.39593 124.886 0 132.776 0Z" fill="#000F06"/>
</svg>
