<svg width="201" height="52" viewBox="0 0 201 52" fill="none" xmlns="http://www.w3.org/2000/svg">
<g clip-path="url(#clip0_2143_16416)">
<path d="M165.511 0.28772H171.89V38.6348H165.511V0.28772ZM76.7075 26.3865C76.7075 27.0598 76.6611 27.7796 76.5565 28.4066H57.7803C58.5007 31.4135 60.9407 33.5381 64.6239 33.5381C66.8547 33.5381 69.2366 32.7138 70.6889 30.7982L75.046 34.2695C72.8268 37.4274 68.8764 39.2965 64.682 39.2965C57.2691 39.2965 51.5642 33.7471 51.5642 26.549C51.5642 19.5135 56.4906 13.4996 64.3218 13.4996C71.572 13.4996 76.7075 19.409 76.7075 26.3865ZM70.2823 23.7046C69.9105 21.2201 67.3195 19.3045 64.2637 19.3045C61.3125 19.3045 58.919 21.0576 57.9895 23.7046H70.2823ZM122.637 20.8602C122.637 20.2333 123.055 19.3045 125.182 19.3045C126.529 19.3045 128.551 19.6644 130.724 21.1737L134.093 16.611C131.293 14.0221 127.296 13.4996 125.124 13.4996C119.628 13.4996 116.409 16.8665 116.409 21.3711C116.409 30.2874 128.9 28.0002 128.9 31.6805C128.9 32.5629 128.179 33.4916 125.89 33.4916C124.124 33.4916 121.382 32.9228 119.093 30.9491L115.724 35.8136C117.955 37.5202 120.906 39.2849 125.472 39.2849C131.688 39.2849 134.965 35.9645 134.965 31.4599C134.976 22.6713 122.637 24.3315 122.637 20.8602ZM162.478 26.3981C162.478 27.0714 162.42 27.8029 162.316 28.4066H143.493C144.213 31.4135 146.653 33.5381 150.337 33.5381C152.567 33.5381 155.007 32.7138 156.46 30.7982L160.817 34.2695C158.586 37.4274 154.647 39.2965 150.395 39.2965C142.982 39.2965 137.277 33.7471 137.277 26.549C137.277 19.5135 142.203 13.4996 150.034 13.4996C157.343 13.4996 162.478 19.409 162.478 26.3981ZM156.041 23.7046C155.681 21.2201 153.09 19.3045 149.976 19.3045C147.025 19.3045 144.632 21.0576 143.702 23.7046H156.041ZM109.543 1.84343C107.265 1.84343 105.499 3.55006 105.499 5.83719C105.499 8.1127 107.265 9.87739 109.543 9.87739C111.82 9.87739 113.539 8.1127 113.539 5.83719C113.528 3.56167 111.82 1.84343 109.543 1.84343ZM92.0793 33.1898C88.3497 33.1898 85.2823 30.0784 85.2823 26.3981C85.2823 22.7178 88.3381 19.6064 92.0793 19.6064C94.4147 19.6064 96.4364 20.7441 97.6796 22.5088L103.175 19.351C100.84 15.8332 96.7501 13.4996 92.0793 13.4996C84.8175 13.4996 79.0197 19.2 79.0197 26.3981C79.0197 33.4916 84.8291 39.2965 92.0793 39.2965C96.7966 39.2965 101.003 36.8585 103.28 33.2362L97.8307 30.0203C96.6456 31.9475 94.5193 33.1898 92.0793 33.1898ZM106.324 38.6232H112.703V13.964H106.324V38.6232ZM41.5836 16.553V13.964H35.1932V38.6232H41.572V26.4445C41.572 22.0444 44.7323 19.6064 48.1599 19.6064C49.7168 19.6064 50.3907 19.7109 51.0646 19.8618V13.5461C50.3907 13.4996 49.7749 13.4996 49.1475 13.4996C46.3008 13.4996 43.6517 14.173 41.5836 16.553ZM194.314 13.964L188.144 31.0188L181.975 13.964H174.922L185.135 39.3081L180.673 51.7306H186.901L200.588 13.964H194.314ZM32.1723 26.3981C32.1723 33.5265 26.3977 39.2965 19.2637 39.2965C12.5479 39.2965 7.02895 34.1766 6.41315 27.6171V51.7306H-0.000488281V13.964H6.41315V25.1791C7.02895 18.6311 12.5479 13.4996 19.2637 13.4996C26.3977 13.4996 32.1723 19.2697 32.1723 26.3981ZM25.7586 26.3865C25.7586 22.8107 22.8423 19.9082 19.2637 19.9082C15.685 19.9082 12.7803 22.8107 12.7803 26.3865C12.7803 29.9739 15.685 32.8763 19.2637 32.8763C22.8423 32.8763 25.747 29.9739 25.7586 26.3865Z" fill="white"/>
</g>
<defs>
<clipPath id="clip0_2143_16416">
<rect width="200.589" height="51.4429" fill="white" transform="translate(0 0.28772)"/>
</clipPath>
</defs>
</svg>
