<svg width="72" height="72" viewBox="0 0 72 72" fill="none" xmlns="http://www.w3.org/2000/svg">
<g opacity="0.64">
<rect x="0.897949" y="0.419922" width="71" height="71" rx="35.5" fill="#E9F3FF"/>
<path d="M33.0589 50.9619C33.0589 51.7814 33.3845 52.5674 33.964 53.1469C34.5435 53.7264 35.3294 54.0519 36.1489 54.0519C36.9684 54.0519 37.7544 53.7264 38.3339 53.1469C38.9134 52.5674 39.2389 51.7814 39.2389 50.9619C39.2389 50.5561 39.159 50.1543 39.0037 49.7794C38.8484 49.4045 38.6208 49.0639 38.3339 48.777C38.047 48.49 37.7063 48.2624 37.3314 48.1071C36.9565 47.9518 36.5547 47.8719 36.1489 47.8719C35.7431 47.8719 35.3413 47.9518 34.9664 48.1071C34.5915 48.2624 34.2509 48.49 33.964 48.777C33.677 49.0639 33.4494 49.4045 33.2941 49.7794C33.1389 50.1543 33.0589 50.5561 33.0589 50.9619ZM41.5939 39.2979C45.9409 36.9039 48.1489 33.4329 48.1489 28.9839C48.1489 21.3429 42.1219 17.9199 36.1489 17.9199C30.3319 17.9199 24.1489 22.1469 24.1489 29.9829C24.1489 30.7786 24.465 31.5416 25.0276 32.1042C25.5902 32.6669 26.3533 32.9829 27.1489 32.9829C27.9446 32.9829 28.7076 32.6669 29.2702 32.1042C29.8329 31.5416 30.1489 30.7786 30.1489 29.9829C30.1489 25.8159 33.2599 23.9199 36.1489 23.9199C38.3899 23.9199 42.1489 24.5769 42.1489 28.9839C42.1489 30.5469 41.7379 32.3709 38.7019 34.0449C36.6379 35.1759 33.1489 38.1129 33.1489 41.9199C33.1489 42.7156 33.465 43.4786 34.0276 44.0412C34.5902 44.6039 35.3533 44.9199 36.1489 44.9199C36.9446 44.9199 37.7076 44.6039 38.2702 44.0412C38.8329 43.4786 39.1489 42.7156 39.1489 41.9199C39.1489 41.3619 40.3339 39.9909 41.5939 39.2979Z" fill="url(#paint0_linear_1446_18958)"/>
</g>
<defs>
<linearGradient id="paint0_linear_1446_18958" x1="30.8494" y1="20.4251" x2="45.0818" y2="21.0573" gradientUnits="userSpaceOnUse">
<stop stop-color="#024BA5"/>
<stop offset="1" stop-color="#105DBD"/>
</linearGradient>
</defs>
</svg>
