<svg width="46" height="47" viewBox="0 0 46 47" fill="none" xmlns="http://www.w3.org/2000/svg">
<g opacity="0.64">
<rect y="0.949219" width="46" height="46" rx="23" fill="#AAC1FE"/>
<path d="M20.8371 33.6948C20.8371 34.2258 21.0481 34.735 21.4235 35.1105C21.7989 35.4859 22.3081 35.6968 22.8391 35.6968C23.3701 35.6968 23.8793 35.4859 24.2547 35.1105C24.6302 34.735 24.8411 34.2258 24.8411 33.6948C24.8411 33.4319 24.7893 33.1716 24.6887 32.9287C24.5881 32.6858 24.4406 32.4651 24.2547 32.2792C24.0688 32.0933 23.8481 31.9459 23.6052 31.8453C23.3623 31.7447 23.102 31.6929 22.8391 31.6929C22.5762 31.6929 22.3159 31.7447 22.073 31.8453C21.8301 31.9459 21.6094 32.0933 21.4235 32.2792C21.2376 32.4651 21.0901 32.6858 20.9895 32.9287C20.8889 33.1716 20.8371 33.4319 20.8371 33.6948ZM26.3668 26.1379C29.1832 24.5868 30.6137 22.338 30.6137 19.4556C30.6137 14.5051 26.7089 12.2874 22.8391 12.2874C19.0703 12.2874 15.0645 15.026 15.0645 20.1028C15.0645 20.6183 15.2692 21.1127 15.6337 21.4772C15.9982 21.8417 16.4926 22.0465 17.0081 22.0465C17.5236 22.0465 18.018 21.8417 18.3825 21.4772C18.747 21.1127 18.9518 20.6183 18.9518 20.1028C18.9518 17.4031 20.9674 16.1747 22.8391 16.1747C24.291 16.1747 26.7264 16.6003 26.7264 19.4556C26.7264 20.4682 26.4601 21.65 24.4932 22.7345C23.1559 23.4673 20.8954 25.3701 20.8954 27.8366C20.8954 28.3521 21.1002 28.8465 21.4647 29.211C21.8292 29.5755 22.3236 29.7803 22.8391 29.7803C23.3546 29.7803 23.849 29.5755 24.2135 29.211C24.578 28.8465 24.7828 28.3521 24.7828 27.8366C24.7828 27.4751 25.5505 26.5869 26.3668 26.1379Z" fill="#1152A2"/>
</g>
</svg>
