<svg width="43" height="31" viewBox="0 0 43 31" fill="none" xmlns="http://www.w3.org/2000/svg">
<path d="M16.1637 1.67409C12.4619 0.616448 8.53797 0.616448 4.83621 1.67409L4.66379 1.72336C2.93388 2.21762 1.58165 3.56985 1.08739 5.29976L0.965778 5.72539C-0.0445821 9.26165 -0.0445823 13.0102 0.965778 16.5464C1.57282 18.6711 3.51478 20.1359 5.72446 20.1359H7.38742C7.62531 20.1359 7.75163 20.1362 7.84382 20.1395L7.85696 20.14L7.86004 20.1528C7.88137 20.2426 7.90643 20.3664 7.95308 20.5996L8.9747 25.7078C9.08444 26.2569 9.19328 26.8016 9.33164 27.2557C9.48723 27.7663 9.72855 28.3391 10.2034 28.8524C10.4529 29.122 10.7383 29.356 11.0517 29.5478C11.6481 29.9128 12.2571 30.0371 12.7883 30.0895C13.2607 30.1361 13.8161 30.136 14.3761 30.1359L15.8325 30.1359C17.7724 30.1359 19.4279 28.7334 19.7469 26.8199L19.856 26.1654C20.9627 19.5249 20.9627 12.747 19.856 6.10646L19.7951 5.7416C19.4713 3.79845 18.0578 2.21528 16.1637 1.67409Z" fill="white"/>
<path d="M26.8362 1.67409C30.538 0.616448 34.4619 0.616448 38.1637 1.67409C40.0578 2.21528 41.4713 3.79845 41.7951 5.7416L41.856 6.10646C42.9627 12.747 42.9627 19.5249 41.856 26.1654L41.7469 26.8199C41.4279 28.7334 39.7724 30.1359 37.8325 30.1359L36.3762 30.1359C35.8161 30.136 35.2607 30.1361 34.7883 30.0895C34.2571 30.0371 33.6481 29.9128 33.0517 29.5478C32.7383 29.356 32.4529 29.122 32.2034 28.8524C31.7286 28.3391 31.4872 27.7663 31.3316 27.2557C31.1933 26.8016 31.0845 26.257 30.9747 25.7079L29.9531 20.5996C29.9064 20.3664 29.8814 20.2426 29.86 20.1528L29.857 20.14L29.8438 20.1395C29.7516 20.1362 29.6253 20.1359 29.3874 20.1359H27.7245C25.5148 20.1359 23.5728 18.6711 22.9658 16.5464C21.9554 13.0102 21.9554 9.26165 22.9658 5.72539L23.0874 5.29976C23.5816 3.56985 24.9339 2.21762 26.6638 1.72336L26.8362 1.67409Z" fill="white"/>
</svg>
