<svg width="41" height="41" viewBox="0 0 41 41" fill="none" xmlns="http://www.w3.org/2000/svg">
<path d="M17.6573 22.646C16.8761 21.0644 16.8761 19.2091 17.6573 17.6275C19.2388 16.8463 21.0942 16.8463 22.6757 17.6275C23.4569 19.2091 23.4569 21.0644 22.6757 22.646C21.0942 23.4271 19.2388 23.4271 17.6573 22.646Z" fill="#99DDE4"/>
<path fill-rule="evenodd" clip-rule="evenodd" d="M22.1665 0.136719V3.77975C23.5069 3.86586 24.8431 4.03862 26.1665 4.29805V0.136719H30.1665V5.36311C32.3964 6.15225 34.151 7.90686 34.9401 10.1367H40.1665V14.1367H36.0052C36.2646 15.4602 36.4374 16.7963 36.5235 18.1367H40.1665V22.1367H36.5235C36.4373 23.4771 36.2646 24.8133 36.0051 26.1367H40.1665V30.1367H34.94C34.1508 32.3665 32.3963 34.121 30.1665 34.9101V40.1367H26.1665V35.9751C24.8431 36.2346 23.5069 36.4073 22.1665 36.4935V40.1367H18.1665V36.4934C16.8261 36.4073 15.4899 36.2345 14.1665 35.9751V40.1367H10.1665V34.91C7.93684 34.1208 6.18238 32.3664 5.39322 30.1367H0.166504V26.1367H4.32813C4.06869 24.8133 3.89591 23.4771 3.80979 22.1367H0.166504V18.1367H3.80978C3.89588 16.7963 4.06865 15.4602 4.32808 14.1367H0.166504V10.1367H5.39314C6.18225 7.90694 7.93676 6.15238 10.1665 5.36319V0.136719H14.1665V4.2981C15.4899 4.03866 16.8261 3.86588 18.1665 3.77976V0.136719H22.1665ZM24.4895 14.0622C21.7681 12.7015 18.5649 12.7015 15.8435 14.0622C15.0855 14.4411 14.4709 15.0557 14.0919 15.8137C12.7312 18.5351 12.7312 21.7383 14.0919 24.4597C14.4709 25.2177 15.0855 25.8323 15.8435 26.2113C18.5649 27.572 21.7681 27.572 24.4895 26.2113C25.2475 25.8323 25.8621 25.2177 26.2411 24.4597C27.6018 21.7383 27.6018 18.5351 26.2411 15.8137C25.8621 15.0557 25.2475 14.4411 24.4895 14.0622Z" fill="#99DDE4"/>
</svg>
