<svg width="32" height="40" viewBox="0 0 32 40" fill="none" xmlns="http://www.w3.org/2000/svg">
<path fill-rule="evenodd" clip-rule="evenodd" d="M17.8335 1.06423L17.8335 4.2674C17.8334 6.04038 17.8333 7.568 17.9978 8.79132C18.174 10.1024 18.5715 11.3591 19.5909 12.3784C20.6102 13.3977 21.8669 13.7952 23.1779 13.9715C24.4012 14.1359 25.9289 14.1358 27.7018 14.1357L30.405 14.1357L30.626 15.6829C31.427 21.2896 31.427 26.9818 30.626 32.5885C30.1564 35.8758 27.5301 38.4648 24.2429 38.9344C18.7083 39.725 13.0241 39.7344 7.48958 38.9437C4.16001 38.4681 1.57402 35.8 1.20259 32.4572L1.09854 31.5207C1.0116 30.7382 0.968122 30.3469 0.927958 29.9564C0.256436 23.4265 0.256436 16.8449 0.927958 10.315C0.968122 9.92449 1.0116 9.53322 1.09855 8.75068L1.37926 6.22429C1.64668 3.81744 3.50862 1.89641 5.90594 1.55394L10.2682 0.930756C12.7883 0.570752 15.3422 0.618143 17.8335 1.06423ZM23.8335 22.1357L7.8335 22.1357V18.1357L23.8335 18.1357V22.1357ZM7.8335 30.1357H17.8335V26.1357H7.8335V30.1357Z" fill="#99DDE4"/>
<path d="M21.8335 2.23238V4.13574C21.8335 6.0779 21.8377 7.33332 21.9621 8.25833C22.0787 9.12581 22.267 9.39771 22.4193 9.54996C22.5715 9.7022 22.8434 9.8905 23.7109 10.0071C24.6359 10.1315 25.8913 10.1357 27.8335 10.1357H29.3464C29.0569 9.59417 28.7049 9.08551 28.2958 8.62078C28.1277 8.42991 27.9437 8.24582 27.5755 7.87765L22.3304 2.63261C22.1791 2.48128 22.0124 2.34722 21.8335 2.23238Z" fill="#99DDE4"/>
</svg>
