<svg width="231" height="52" viewBox="0 0 231 52" fill="none" xmlns="http://www.w3.org/2000/svg">
<g clip-path="url(#clip0_2143_16421)">
<path d="M40.9112 21.871C43.1045 11.7308 42.4688 3.46609 42.437 3.11643V2.57604L41.8648 2.44889C41.8012 2.44889 36.1749 0.986674 27.9102 0.446289C28.8956 13.3837 32.6147 23.0153 38.0503 31.3754C39.2265 28.4509 40.1801 25.2722 40.9112 21.9345" fill="white"/>
<path d="M34.3956 35.6668C32.393 31.3119 30.7401 26.7981 29.4686 22.1571C28.1653 17.5162 27.2435 12.8117 26.6077 8.07535C26.2899 5.46879 26.0356 2.89401 25.8766 0.287452C25.3362 0.287452 24.7641 0.223877 24.1919 0.223877C24.6369 18.438 26.862 32.5834 30.1997 44.1858C32.0434 42.1196 33.6645 39.7991 35.1267 37.2879C34.8724 36.7475 34.6181 36.2072 34.3638 35.6668" fill="white"/>
<path d="M1.62136 21.871C-0.571963 11.7308 0.095571 3.4343 0.095571 3.11643V2.57604L0.667743 2.44889C0.731318 2.44889 6.35768 0.986674 14.6224 0.446289C13.637 13.3837 9.91786 23.0153 4.48223 31.3754C3.30609 28.4509 2.35247 25.2722 1.62136 21.9345" fill="white"/>
<path d="M8.13838 35.6668C10.141 31.3119 11.7939 26.7981 13.0654 22.1571C14.3687 17.5162 15.2905 12.8117 15.8945 8.07535C16.2442 5.46879 16.4667 2.89401 16.6256 0.287452C17.166 0.287452 17.7382 0.223877 18.3103 0.223877C17.8653 18.438 15.6402 32.5834 12.3025 44.1858C10.4589 42.1196 8.83771 39.7991 7.37549 37.2879C7.62979 36.7475 7.88409 36.2072 8.13838 35.6668Z" fill="white"/>
<path d="M24.031 39.0679C23.1727 31.5025 22.7277 23.9054 22.4734 16.3082C22.2827 10.9043 22.1873 5.53227 22.1556 0.128418C21.8695 0.128418 21.5834 0.128418 21.2973 0.128418C21.0112 0.128418 20.7251 0.128418 20.439 0.128418C20.4072 5.53227 20.2801 10.9043 20.1212 16.3082C19.8669 23.9054 19.4218 31.5025 18.5636 39.0679C18.2139 42.3102 17.7371 45.5525 17.2285 48.7949C18.4046 49.7167 19.6444 50.5749 20.9158 51.3378L21.2973 51.5604L21.6787 51.3378C22.9502 50.5749 24.1899 49.7167 25.3661 48.7949C24.8575 45.5525 24.3807 42.342 24.031 39.0679Z" fill="white"/>
<path d="M200.864 15.7362H186.369L178.931 36.3026H193.426L200.864 15.7362Z" fill="white"/>
<path d="M198.227 25.3042L206.81 36.3026H223.562L213.93 25.4313L230.587 15.7362H213.612L198.227 25.3042Z" fill="white"/>
<path d="M181.763 19.6778L183.193 15.7362H146.098L141.012 29.8498C140.694 30.7398 140.63 31.7888 141.298 32.5517C141.52 32.806 143.173 34.6815 143.523 35.0629C144.127 35.7304 144.826 36.2708 146.034 36.2708H175.755L177.186 32.361H156.397C155.125 32.361 154.521 31.4074 154.871 30.4537L155.824 27.8472H178.807L180.237 23.9056H157.255L158.812 19.6143H181.827L181.763 19.6778Z" fill="white"/>
<path d="M139.134 15.736H102.229L94.791 36.3024H108.905L114.881 19.6776H125.402C126.547 19.6776 126.992 20.5041 126.737 21.3306C126.483 22.1888 126.102 23.1743 125.847 23.81C125.498 24.6683 124.639 25.304 123.4 25.304C122.16 25.304 113.514 25.304 113.514 25.304L122.096 36.2706H138.34L131.029 28.0377C131.029 28.0377 133.953 28.0377 135.415 28.0377C137.481 28.0377 138.626 26.9569 139.166 25.5901C139.77 24.0643 141.137 20.2498 141.582 18.9783C142.313 16.9121 141.137 15.7042 139.071 15.7042" fill="white"/>
<path d="M99.687 15.7362H59.3488L57.9502 19.6778H71.8413L65.8335 36.3026H79.502L85.5416 19.6778H98.2566L99.687 15.7362Z" fill="white"/>
</g>
<defs>
<clipPath id="clip0_2143_16421">
<rect width="230.585" height="51.4001" fill="white" transform="translate(0 0.160278)"/>
</clipPath>
</defs>
</svg>
