<svg width="219" height="52" viewBox="0 0 219 52" fill="none" xmlns="http://www.w3.org/2000/svg">
<path fill-rule="evenodd" clip-rule="evenodd" d="M214.006 47.1098V28.2153H200.955V37.5786H195.961V13.856H200.955V23.2194H214.006V4.3248H171.243V23.2194H184.295V13.856H189.288V37.5786H184.295V28.2153H171.243V47.1098H214.006ZM166.92 46.732V4.70265C166.92 1.76387 168.683 0 171.621 0H213.628C216.566 0 218.328 1.76387 218.328 4.70265V46.732C218.328 49.6708 216.566 51.4346 213.628 51.4346H171.621C168.683 51.4346 166.92 49.6708 166.92 46.732ZM139.521 40.4148V15.7261H130.204V11.0234H153.957V15.7261H144.641V40.4148H139.521ZM115.1 27.7763C111.155 26.4328 106.875 24.7535 106.875 19.2532C106.875 13.8788 110.862 10.3943 116.989 10.3943C119.758 10.3943 122.066 11.0234 124.123 11.9476V17.322C121.815 15.894 119.507 15.0543 116.989 15.0543C113.967 15.0543 112.078 16.4818 112.078 18.7494C112.078 21.4369 114.555 22.2346 118.458 23.578C122.403 24.9215 126.683 26.6008 126.683 32.1011C126.683 37.5594 122.612 41.0446 116.359 41.0446C112.96 41.0446 110.19 40.1629 107.882 38.9868V33.5291C110.568 35.2084 113.254 36.3839 116.359 36.3839C119.507 36.3839 121.479 34.8725 121.479 32.6049C121.479 29.918 119.003 29.1203 115.1 27.7763ZM93.1958 40.4148H98.3157V11.0234H93.1958V40.4148ZM59.9212 29.0357V11.0234H65.0411V28.9524C65.0411 33.5291 67.5593 36.3419 71.7135 36.3419C75.8683 36.3419 78.3859 33.5291 78.3859 28.9524V11.0234H83.5058V29.0357C83.5058 36.174 78.7636 41.0446 71.7135 41.0446C64.6634 41.0446 59.9212 36.174 59.9212 29.0357ZM41.7532 25.3833C44.6485 25.3833 46.7472 23.3681 46.7472 20.5127C46.7472 17.6999 44.6485 15.6841 41.7532 15.6841H35.4159V25.3833H41.7532ZM42.6763 34.4947C41.2497 31.5553 40.4938 29.96 37.1788 29.96H35.4159V40.4148H30.2966V11.0234H41.7946C47.7962 11.0234 51.9929 14.8864 51.9929 20.3867C51.9929 24.9215 49.3068 27.9862 45.1527 29.0357C47.0403 30.9675 47.6697 33.4871 48.9286 34.7466C49.6419 35.4603 50.3978 35.8801 51.5733 35.8801C52.0343 35.8801 52.4119 35.8381 52.7482 35.7542V40.4148C52.1188 40.5408 51.5308 40.6247 50.9013 40.6247C45.8234 40.6247 44.2709 37.8113 42.6763 34.4947ZM9.31659 40.4148V15.7261H0V11.0234H23.7524V15.7261H14.4365V40.4148H9.31659Z" fill="white"/>
</svg>
