<svg width="112" height="46" viewBox="0 0 112 46" fill="none" xmlns="http://www.w3.org/2000/svg">
<g id="Layer_1" clip-path="url(#clip0_236_2756)">
<path id="Vector" d="M17.2143 0V13.5492H7.18848V13.5326L17.2143 0Z" fill="#1152A2"/>
<path id="Vector_2" d="M17.1686 26.6204L13.3544 31.7725L10.6911 35.3623L7.18848 40.0948V26.6204H17.1686Z" fill="#1152A2"/>
<path id="Vector_3" d="M40.1788 38.5867C39.4803 39.6185 38.5391 40.4631 37.438 41.0463C36.3368 41.6294 35.1094 41.9334 33.8633 41.9314H9.19141L14.061 35.3625H33.8633C34.2743 35.3633 34.6731 35.223 34.9931 34.9651C35.313 34.7073 35.5349 34.3474 35.6214 33.9457C35.708 33.5439 35.6541 33.1246 35.4687 32.7579C35.2833 32.3911 34.9777 32.099 34.6029 31.9305C34.5476 31.9034 34.4907 31.8798 34.4325 31.8599C35.6749 32.1299 38.6664 33.339 40.1788 38.5867Z" fill="#1152A2"/>
<path id="Vector_4" d="M49.2032 23.1091L48.1229 24.5717V41.9309H41.9778C43.6785 40.1349 44.7325 37.8236 44.9735 35.362C45.0067 35.0005 45.0234 34.639 45.0234 34.2734C45.023 33.4342 44.9268 32.5978 44.7367 31.7804C44.6743 31.5228 44.6079 31.2694 44.5331 31.0201C44.0342 29.3787 43.1593 27.8764 41.9778 26.6325C41.8324 26.4705 41.6745 26.3167 41.5166 26.1672V23.1216L49.2032 23.1091Z" fill="#1152A2"/>
<path id="Vector_5" d="M42.6629 16.6401L41.512 18.1858L37.7725 23.2381H23.1348L28.0251 16.6401H42.6629Z" fill="#1152A2"/>
<path id="Vector_6" d="M24.6594 16.6399L19.7691 23.2379H0L4.89034 16.6399H24.6594Z" fill="#1152A2"/>
<path id="Vector_7" d="M62.6935 16.5156L57.8032 23.1136H41.5117V22.6067L46.0281 16.5156H62.6935Z" fill="#1152A2"/>
<path id="Vector_8" d="M49.2017 23.1091L48.1214 24.5717V31.0284H44.5399C44.041 29.387 43.1661 27.8847 41.9846 26.6408C41.8392 26.4788 41.6813 26.325 41.5234 26.1755V23.1299L49.2017 23.1091Z" fill="url(#paint0_linear_236_2756)"/>
<path id="Vector_9" d="M41.516 34.2737C41.5151 34.638 41.4888 35.0018 41.4371 35.3623C41.3309 36.1269 41.1052 36.87 40.7681 37.5644C40.6044 37.918 40.4112 38.2571 40.1906 38.5782C38.6782 33.3306 35.6867 32.1215 34.4444 31.8514L34.2906 31.8099C34.1937 31.7876 34.095 31.7737 33.9956 31.7683H33.8751H16.7236L17.2181 31.0952L20.542 26.6204H33.871C34.2885 26.6194 34.7054 26.6528 35.1175 26.7201C36.0549 26.8703 36.9547 27.1989 37.7683 27.6882C38.9159 28.3619 39.8672 29.3243 40.5276 30.4796C41.188 31.6349 41.5345 32.943 41.5327 34.2737H41.516Z" fill="#1152A2"/>
<path id="Vector_10" d="M40.178 38.5867C39.4794 39.6185 38.5383 40.4631 37.4371 41.0463C36.336 41.6294 35.1085 41.9334 33.8625 41.9314H29.8945C30.1272 40.3525 30.7629 36.4884 30.9499 35.3625H33.8583C34.2693 35.3633 34.6681 35.223 34.9881 34.9651C35.3081 34.7073 35.5299 34.3474 35.6164 33.9457C35.703 33.5439 35.6491 33.1246 35.4637 32.7579C35.2783 32.3911 34.9727 32.099 34.5979 31.9305C34.5426 31.9034 34.4857 31.8798 34.4275 31.8599C35.674 32.1299 38.6656 33.339 40.178 38.5867Z" fill="url(#paint1_linear_236_2756)"/>
<path id="Vector_11" d="M13.3544 31.7725L10.6911 35.3623L7.18848 40.0948V31.7725H13.3544Z" fill="url(#paint2_linear_236_2756)"/>
<path id="Vector_12" d="M53.844 26.6492H51.1807V41.9517H53.844V26.6492Z" fill="#1152A2"/>
<path id="Vector_13" d="M62.083 38.4621L61.8212 38.7986C61.5828 39.1096 61.2883 39.3731 60.9528 39.5756C60.5951 39.7695 60.192 39.8642 59.7853 39.8498C59.4876 39.8592 59.1915 39.803 58.918 39.6853C58.6444 39.5675 58.4001 39.3911 58.2023 39.1684C57.8447 38.7646 57.6224 38.259 57.5666 37.7225H63.6369V36.6589C63.6369 35.1257 63.2754 33.9208 62.5649 33.0732C62.1884 32.6378 61.7178 32.2938 61.1887 32.0671C60.6597 31.8403 60.086 31.7368 59.5111 31.7644C58.7196 31.7629 57.9452 31.9941 57.284 32.4291C56.5993 32.8777 56.0526 33.5078 55.7052 34.249C55.3249 35.0538 55.1345 35.9351 55.1484 36.8251V37.1076C55.0909 38.3993 55.5465 39.6613 56.4157 40.6185C56.8392 41.059 57.3507 41.4054 57.917 41.6352C58.4832 41.8649 59.0915 41.973 59.7022 41.9522C60.4406 41.9893 61.1757 41.83 61.8325 41.4907C62.4894 41.1513 63.0446 40.6439 63.4416 40.0202L63.6535 39.6961L62.083 38.4621ZM57.6538 35.5994C57.7424 35.1578 57.9443 34.7469 58.2397 34.4069C58.3963 34.2321 58.5886 34.0931 58.8037 33.9992C59.0188 33.9053 59.2515 33.8587 59.4861 33.8626C59.7131 33.8504 59.9399 33.8892 60.1498 33.9763C60.3598 34.0633 60.5476 34.1962 60.6994 34.3653C60.9836 34.7229 61.1556 35.1566 61.1938 35.6118L57.6538 35.5994Z" fill="#1152A2"/>
<path id="Vector_14" d="M73.1882 41.063C72.9762 40.4849 72.8802 39.8707 72.9057 39.2556V35.1006C72.9142 34.6401 72.824 34.1831 72.6413 33.7603C72.4585 33.3374 72.1874 32.9586 71.8462 32.6492C71.0812 32.028 70.1129 31.7127 69.1288 31.7642C68.4478 31.7628 67.774 31.9043 67.1511 32.1797C66.5772 32.427 66.0743 32.8141 65.6886 33.3057C65.3326 33.748 65.1338 34.2962 65.1235 34.8638V35.2793H67.5209V34.8638C67.5226 34.7286 67.559 34.596 67.6267 34.4788C67.6943 34.3617 67.791 34.2639 67.9073 34.1949C68.2374 33.9633 68.6345 33.8465 69.0374 33.8625C69.4451 33.8292 69.8495 33.9575 70.1634 34.2198C70.2872 34.3508 70.3827 34.5057 70.4442 34.6751C70.5056 34.8445 70.5317 35.0247 70.5207 35.2045V35.4912H69.4446C68.0652 35.4912 66.9517 35.7821 66.1872 36.3513C65.7855 36.6353 65.4611 37.0151 65.2434 37.4562C65.0258 37.8974 64.9217 38.3859 64.9407 38.8775C64.932 39.2993 65.0169 39.7178 65.1893 40.1029C65.3617 40.488 65.6174 40.8301 65.9379 41.1045C66.6232 41.6883 67.5019 41.9951 68.4017 41.9646C69.2213 41.9748 70.0219 41.7181 70.6828 41.2333C70.7137 41.3478 70.7554 41.4591 70.8074 41.5657L70.9238 41.7984H73.2214V41.1544L73.1882 41.063ZM70.5207 37.4149V38.7362C70.3482 39.0367 70.0949 39.2829 69.7895 39.4467C69.4394 39.657 69.0386 39.7677 68.6302 39.7666C68.2808 39.7857 67.9365 39.6764 67.6621 39.4592C67.5438 39.3576 67.4514 39.2291 67.3929 39.0846C67.3343 38.94 67.3112 38.7835 67.3256 38.6282C67.3256 38.3249 67.3256 37.3817 69.7355 37.3817L70.5207 37.4149Z" fill="#1152A2"/>
<path id="Vector_15" d="M79.5634 31.9301C79.2853 31.8065 78.9823 31.7496 78.6784 31.7639C78.0372 31.7483 77.4094 31.9488 76.8959 32.3331V31.9176H74.5234V41.9351H76.9499V35.1127C77.0876 34.7951 77.323 34.5296 77.6218 34.3547C77.9207 34.1799 78.2675 34.1049 78.6119 34.1405C78.8471 34.1382 79.082 34.1563 79.3141 34.1945L79.8127 34.2776V32.0464L79.5634 31.9301Z" fill="#1152A2"/>
<path id="Vector_16" d="M85.7952 31.7644C84.9456 31.7474 84.1153 32.0183 83.4393 32.5331L83.4144 31.9348H81.0918V41.9523H83.5183V35.1008C83.685 34.7696 83.9304 34.4843 84.2329 34.2698C84.5515 34.0472 84.9329 33.9322 85.3215 33.9416C85.5136 33.9224 85.7077 33.9423 85.8919 34.0001C86.0762 34.058 86.2468 34.1526 86.3935 34.2782C86.6429 34.6156 86.7623 35.0315 86.73 35.4499V41.9398H89.1565V35.4665C89.1316 32.4084 87.3159 31.7644 85.7952 31.7644Z" fill="#1152A2"/>
<path id="Vector_17" d="M92.9041 31.7808H90.4443V41.9437H92.9041V31.7808Z" fill="#1152A2"/>
<path id="Vector_18" d="M98.8662 31.7645C98.023 31.7469 97.1986 32.0149 96.527 32.5248L96.502 31.9348H94.2002V41.8693H96.6059V35.0718C96.7698 34.7412 97.0124 34.4559 97.3122 34.2408C97.6297 34.0195 98.0098 33.9059 98.3967 33.9167C98.5865 33.8982 98.7782 33.9181 98.9602 33.9752C99.1423 34.0323 99.3109 34.1254 99.4562 34.2491C99.7049 34.5835 99.8231 34.9972 99.7886 35.4125V41.8485H102.194V35.4374C102.173 32.4043 100.37 31.7645 98.8662 31.7645Z" fill="#1152A2"/>
<path id="Vector_19" d="M109.764 31.9345L109.727 32.433C109.073 31.9749 108.289 31.7403 107.492 31.7641C106.925 31.7499 106.363 31.871 105.853 32.1174C105.343 32.3638 104.899 32.7284 104.558 33.1809C103.801 34.2374 103.424 35.5185 103.486 36.8165C103.486 38.3829 103.848 39.646 104.562 40.5559C104.894 41.0146 105.332 41.3861 105.838 41.6387C106.345 41.8912 106.905 42.0173 107.471 42.006C108.215 42.025 108.948 41.8273 109.581 41.4367C109.592 41.9327 109.41 42.4135 109.075 42.7788C108.879 42.9594 108.648 43.098 108.396 43.1859C108.145 43.2738 107.878 43.3092 107.612 43.2899C107.201 43.2899 106.796 43.1928 106.43 43.0065C106.064 42.8202 105.747 42.55 105.505 42.2179L105.186 41.8024L103.835 43.3646L104.018 43.6347C104.423 44.2098 104.982 44.6591 105.63 44.931C106.283 45.2276 106.991 45.3834 107.708 45.3881C108.274 45.4131 108.839 45.3258 109.371 45.1311C109.903 44.9364 110.391 44.6382 110.807 44.2538C111.204 43.8487 111.512 43.3663 111.714 42.8365C111.916 42.3068 112.006 41.7412 111.979 41.175V31.9345H109.764ZM109.59 38.8399C109.432 39.1595 109.185 39.4259 108.878 39.6061C108.57 39.7864 108.217 39.8724 107.861 39.8537C107.585 39.8667 107.311 39.8095 107.063 39.6874C106.815 39.5653 106.602 39.3824 106.444 39.1557C106.044 38.5091 105.852 37.7546 105.896 36.9951C105.896 35.9398 106.083 35.1462 106.453 34.6351C106.613 34.4084 106.827 34.2254 107.076 34.1027C107.325 33.9801 107.601 33.9217 107.878 33.933C108.227 33.921 108.572 34.0069 108.874 34.1809C109.177 34.3549 109.425 34.6101 109.59 34.9177V38.8399Z" fill="#1152A2"/>
<path id="Vector_20" d="M91.6742 30.1396C92.3534 30.1396 92.9041 29.589 92.9041 28.9098C92.9041 28.2306 92.3534 27.6799 91.6742 27.6799C90.995 27.6799 90.4443 28.2306 90.4443 28.9098C90.4443 29.589 90.995 30.1396 91.6742 30.1396Z" fill="#1152A2"/>
</g>
<defs>
<linearGradient id="paint0_linear_236_2756" x1="45.3543" y1="31.0076" x2="45.3543" y2="23.1091" gradientUnits="userSpaceOnUse">
<stop stop-color="#0273B2" stop-opacity="0"/>
<stop offset="1" stop-color="#293A83"/>
</linearGradient>
<linearGradient id="paint1_linear_236_2756" x1="38.5534" y1="34.1077" x2="32.9733" y2="39.5755" gradientUnits="userSpaceOnUse">
<stop stop-color="#293A83"/>
<stop offset="1" stop-color="#0273B2" stop-opacity="0"/>
</linearGradient>
<linearGradient id="paint2_linear_236_2756" x1="10.2714" y1="31.4567" x2="10.2714" y2="37.2445" gradientUnits="userSpaceOnUse">
<stop stop-color="#293A83"/>
<stop offset="0.11" stop-color="#23438A" stop-opacity="0.85"/>
<stop offset="0.4" stop-color="#15579B" stop-opacity="0.48"/>
<stop offset="0.65" stop-color="#0B66A8" stop-opacity="0.22"/>
<stop offset="0.86" stop-color="#0470AF" stop-opacity="0.06"/>
<stop offset="1" stop-color="#0273B2" stop-opacity="0"/>
</linearGradient>
<clipPath id="clip0_236_2756">
<rect width="112" height="45.4257" fill="white"/>
</clipPath>
</defs>
</svg>
