<svg width="223" height="223" viewBox="0 0 223 223" fill="none" xmlns="http://www.w3.org/2000/svg">
<g opacity="0.05">
<path d="M81.1176 107.519C76.9515 99.0837 76.9515 89.1887 81.1176 80.7536C89.5527 76.5875 99.4477 76.5875 107.883 80.7536C112.049 89.1887 112.049 99.0837 107.883 107.519C99.4477 111.685 89.5527 111.685 81.1176 107.519Z" fill="#1152A2"/>
<path fill-rule="evenodd" clip-rule="evenodd" d="M105.167 -12.5305V6.89903C112.316 7.35827 119.442 8.27971 126.5 9.66333V-12.5305H147.833V15.3436C159.726 19.5524 169.084 28.9103 173.293 40.8029H201.167V62.1362H178.973C180.357 69.1946 181.278 76.3208 181.737 83.4695H201.167V104.803H181.737C181.278 111.952 180.356 119.078 178.973 126.136H201.167V147.47H173.292C169.083 159.361 159.726 168.719 147.833 172.928V200.803H126.5V178.608C119.442 179.991 112.316 180.913 105.167 181.372V200.803H83.8335V181.372C76.6847 180.913 69.5585 179.991 62.5002 178.608V200.803H41.1668V172.927C29.2753 168.718 19.9182 159.361 15.7093 147.47H-12.1665V126.136H10.0289C8.64517 119.078 7.72367 111.952 7.26437 104.803H-12.1665V83.4695H7.26428C7.72352 76.3208 8.64495 69.1946 10.0286 62.1362H-12.1665V40.8029H15.7089C19.9175 28.9107 29.2749 19.5531 41.1668 15.3441V-12.5305H62.5002V9.66359C69.5585 8.27991 76.6847 7.35842 83.8335 6.89911V-12.5305H105.167ZM117.556 61.7385C103.042 54.4815 85.9583 54.4815 71.4442 61.7385C67.4016 63.7598 64.1237 67.0377 62.1025 71.0802C54.8454 85.5943 54.8454 102.678 62.1025 117.192C64.1237 121.235 67.4016 124.513 71.4442 126.534C85.9583 133.791 103.042 133.791 117.556 126.534C121.599 124.513 124.877 121.235 126.898 117.192C134.155 102.678 134.155 85.5943 126.898 71.0802C124.877 67.0377 121.599 63.7598 117.556 61.7385Z" fill="#1152A2"/>
</g>
</svg>
